<svg xmlns="http://www.w3.org/2000/svg" xmlns:xlink="http://www.w3.org/1999/xlink" viewBox="0 0 1680.4 637.3"><defs><style>.cls-1{fill:url(#linear-gradient);}.cls-2{fill:url(#linear-gradient-2);}.cls-3{fill:url(#linear-gradient-3);}.cls-4{fill:url(#linear-gradient-4);}.cls-5{fill:url(#linear-gradient-5);}.cls-6{fill:url(#linear-gradient-6);}.cls-7{fill:url(#linear-gradient-7);}.cls-8{fill:url(#linear-gradient-8);}.cls-9{fill:url(#linear-gradient-9);}.cls-10{fill:url(#linear-gradient-10);}.cls-11{fill:url(#linear-gradient-11);}.cls-12{fill:url(#linear-gradient-12);}.cls-13{fill:url(#linear-gradient-13);}.cls-14{fill:url(#linear-gradient-14);}.cls-15{fill:url(#linear-gradient-15);}</style><linearGradient id="linear-gradient" x1="137.23" y1="117.14" x2="137.23" y2="517.68" gradientUnits="userSpaceOnUse"><stop offset="0" stop-color="#fff"/><stop offset="1" stop-color="#f7f7f7"/></linearGradient><linearGradient id="linear-gradient-2" x1="315.12" y1="117.14" x2="315.12" y2="517.68" xlink:href="#linear-gradient"/><linearGradient id="linear-gradient-3" x1="507.37" y1="117.14" x2="507.37" y2="517.68" xlink:href="#linear-gradient"/><linearGradient id="linear-gradient-4" x1="720.94" y1="117.14" x2="720.94" y2="517.68" xlink:href="#linear-gradient"/><linearGradient id="linear-gradient-5" x1="931.83" y1="117.14" x2="931.83" y2="517.68" xlink:href="#linear-gradient"/><linearGradient id="linear-gradient-6" x1="1138.76" y1="117.14" x2="1138.76" y2="517.68" xlink:href="#linear-gradient"/><linearGradient id="linear-gradient-7" x1="1328.59" y1="117.14" x2="1328.59" y2="517.68" xlink:href="#linear-gradient"/><linearGradient id="linear-gradient-8" x1="1530.25" y1="117.14" x2="1530.25" y2="517.68" xlink:href="#linear-gradient"/><linearGradient id="linear-gradient-9" x1="146.43" y1="117.14" x2="146.43" y2="517.68" xlink:href="#linear-gradient"/><linearGradient id="linear-gradient-10" x1="382.85" y1="117.14" x2="382.85" y2="517.68" xlink:href="#linear-gradient"/><linearGradient id="linear-gradient-11" x1="1546.83" y1="117.14" x2="1546.83" y2="517.68" xlink:href="#linear-gradient"/><linearGradient id="linear-gradient-12" x1="734.58" y1="117.14" x2="734.58" y2="517.68" xlink:href="#linear-gradient"/><linearGradient id="linear-gradient-13" x1="955.55" y1="117.14" x2="955.55" y2="517.68" xlink:href="#linear-gradient"/><linearGradient id="linear-gradient-14" x1="1182.47" y1="117.14" x2="1182.47" y2="517.68" xlink:href="#linear-gradient"/><linearGradient id="linear-gradient-15" x1="1364.65" y1="117.14" x2="1364.65" y2="517.68" xlink:href="#linear-gradient"/></defs><title>LOC_text_no_tagline_white</title><g id="Layer_1" data-name="Layer 1"><path class="cls-1" d="M195.1,282.7H129a10.5,10.5,0,0,1-10.5-10.4V132.7A11.4,11.4,0,0,0,107,121.2H79.3a11.4,11.4,0,0,0-11.4,11.5V312.2a18.8,18.8,0,0,0,18.9,18.9H195.1a11.4,11.4,0,0,0,11.5-11.4V294.2A11.5,11.5,0,0,0,195.1,282.7Z"/><path class="cls-2" d="M301.3,160.3h74.8a11.6,11.6,0,0,0,11.5-11.5V132.7a11.5,11.5,0,0,0-11.5-11.5H261.5a18.8,18.8,0,0,0-18.8,18.9V312.2a18.8,18.8,0,0,0,18.8,18.9H375.8a11.5,11.5,0,0,0,11.5-11.4V303.6a11.5,11.5,0,0,0-11.5-11.4H301.3a8,8,0,0,1-8-8.1V250a8,8,0,0,1,8-8h60.1a11.4,11.4,0,0,0,11.4-11.4V216a11.5,11.5,0,0,0-11.4-11.5H301.3a8,8,0,0,1-8-8V168.3A8,8,0,0,1,301.3,160.3Z"/><path class="cls-3" d="M602.7,315.7l-68.3-185a14.6,14.6,0,0,0-13.6-9.5H493.5a14.6,14.6,0,0,0-13.7,9.5L412,315.7a11.4,11.4,0,0,0,10.7,15.4H452a11.5,11.5,0,0,0,10.9-8.1l40.3-130.4a4.1,4.1,0,0,1,7.8,0l40.6,130.5a11.4,11.4,0,0,0,10.9,8H592A11.4,11.4,0,0,0,602.7,315.7Z"/><path class="cls-4" d="M790.8,169.4a88.8,88.8,0,0,0-34.7-35.6c-14.8-8.4-31.4-12.6-50-12.6H657.4a18.8,18.8,0,0,0-18.9,18.9V312.2a18.8,18.8,0,0,0,18.9,18.9h50.1q27.3-.2,49.4-13a88.9,88.9,0,0,0,34.3-35.8c8.2-15.2,12.2-32.5,12.2-51.7V221Q803.3,192.4,790.8,169.4Zm-39,61.2c0,20.4-3.9,35.7-11.7,46.1s-18.9,15.5-33.4,15.5h-9.2a8.5,8.5,0,0,1-8.4-8.5v-115a8.5,8.5,0,0,1,8.4-8.4h8.6c14.9,0,26.2,5.1,34,15.4s11.7,25.5,11.7,45.8Z"/><path class="cls-5" d="M1008.1,121.2H980.7a11.5,11.5,0,0,0-11.5,11.5V197a7.4,7.4,0,0,1-7.5,7.5H902.2a7.5,7.5,0,0,1-7.5-7.5V132.7a11.4,11.4,0,0,0-11.4-11.5H855.5a11.4,11.4,0,0,0-11.4,11.5v187a11.4,11.4,0,0,0,11.4,11.4h27.8a11.4,11.4,0,0,0,11.4-11.4V251a7.6,7.6,0,0,1,7.5-7.6h59.5a7.5,7.5,0,0,1,7.5,7.6v68.7a11.5,11.5,0,0,0,11.5,11.4h27.4a11.5,11.5,0,0,0,11.5-11.4v-187A11.5,11.5,0,0,0,1008.1,121.2Z"/><path class="cls-6" d="M1124.9,160.3h74.8a11.5,11.5,0,0,0,11.5-11.5V132.7a11.4,11.4,0,0,0-11.5-11.5H1085.2a18.9,18.9,0,0,0-18.9,18.9V312.2a18.9,18.9,0,0,0,18.9,18.9h114.2a11.4,11.4,0,0,0,11.5-11.4V303.6a11.4,11.4,0,0,0-11.5-11.4h-74.5a8,8,0,0,1-8-8.1V250a8,8,0,0,1,8-8h60.2a11.4,11.4,0,0,0,11.4-11.4V216a11.5,11.5,0,0,0-11.4-11.5h-60.2a8,8,0,0,1-8-8V168.3A8,8,0,0,1,1124.9,160.3Z"/><path class="cls-7" d="M1410.1,320.4l-38.4-76.2c12.6-6,21.8-13.8,27.7-23.4s8.9-21.7,8.9-36.2q0-30.3-21-46.8c-14.1-11.1-33.5-16.6-58.4-16.6h-63.8a18.8,18.8,0,0,0-18.8,18.9V319.7a11.4,11.4,0,0,0,11.4,11.4h27.7a11.4,11.4,0,0,0,11.5-11.4V261.8a4.9,4.9,0,0,1,5-4.9h15.6a10.9,10.9,0,0,1,9.8,6.1l30.8,61.8a11.8,11.8,0,0,0,10.3,6.3h35.1A7.4,7.4,0,0,0,1410.1,320.4Zm-59.5-110c-4.9,5-12.1,7.5-21.7,7.5h-27a4.9,4.9,0,0,1-5-4.9V165.1a5,5,0,0,1,5-5h27q14.3,0,21.6,7.8c4.9,5.1,7.4,12.2,7.4,21.3S1355.4,205.3,1350.6,210.4Z"/><path class="cls-8" d="M1578.5,221c-9.4-5.4-21.3-10.5-35.8-15.1s-24.6-9.2-30.4-13.6-8.7-9.2-8.7-14.6,2.7-11.2,7.9-15.2,12.4-6,21.4-6,16,2.4,21.3,7.1a22.5,22.5,0,0,1,6.9,11.6,11.2,11.2,0,0,0,10.9,8.3h27.9a11.4,11.4,0,0,0,11.2-13.7,55.9,55.9,0,0,0-8.6-20.4c-6.6-10-15.9-17.6-27.8-23s-25.6-8.1-40.6-8.1-29.5,2.5-41.8,7.4-22,11.9-28.8,20.8a49.4,49.4,0,0,0-10.2,30.8c0,23.3,13.6,41.7,40.8,55,8.4,4.2,19.1,8.4,32.3,12.9s22.4,8.7,27.6,12.8,7.9,9.9,7.9,17.3-2.5,11.6-7.3,15.2-11.5,5.4-19.8,5.4c-13.1,0-22.5-2.7-28.4-8-4-3.7-6.7-8.9-7.9-15.5a11.7,11.7,0,0,0-11.6-9.4h-27.4a11.6,11.6,0,0,0-11.3,13.7,62.5,62.5,0,0,0,9.2,23c7,10.7,17.4,19,31.2,25.1s29.2,9.2,46.2,9.2q36.2,0,56.9-15.8t20.8-43.2C1612.5,252,1601.1,234,1578.5,221Z"/><path class="cls-9" d="M219.2,412.5a73.3,73.3,0,0,0-16.3-24.1,79.7,79.7,0,0,0-24.8-16.3,81.1,81.1,0,0,0-31.5-6,81.1,81.1,0,0,0-31.5,6,74.2,74.2,0,0,0-24.9,16.5,76.1,76.1,0,0,0-16.4,24.3,73.5,73.5,0,0,0-5.9,29.6v.5a75.1,75.1,0,0,0,5.8,29.6A72.9,72.9,0,0,0,90,496.7a77.9,77.9,0,0,0,24.7,16.2,81.1,81.1,0,0,0,31.5,6,82,82,0,0,0,31.6-6A74.8,74.8,0,0,0,219,472.2a73.7,73.7,0,0,0,6-29.7v-.4A76.6,76.6,0,0,0,219.2,412.5ZM191,443a48.1,48.1,0,0,1-3.3,17.8,47.2,47.2,0,0,1-9.1,14.7,40.4,40.4,0,0,1-14,9.9,44.5,44.5,0,0,1-18,3.6,43.9,43.9,0,0,1-18-3.7,46,46,0,0,1-14.2-10.1,44.9,44.9,0,0,1-9.3-14.7,50.9,50.9,0,0,1-3.2-18v-.4a49.8,49.8,0,0,1,3.2-17.8,47.9,47.9,0,0,1,9.1-14.7,41.4,41.4,0,0,1,14-9.9,43.8,43.8,0,0,1,18-3.6,43,43,0,0,1,18,3.7,43.5,43.5,0,0,1,14.2,10,45.3,45.3,0,0,1,9.3,14.8,48.6,48.6,0,0,1,3.3,17.9Z"/><path class="cls-10" d="M416.4,373.2v79.9a2.2,2.2,0,0,1-4,1.3l-62.6-82.3a8.8,8.8,0,0,0-7-3.5H323.6a6.5,6.5,0,0,0-6.4,6.5V511.9a4.6,4.6,0,0,0,4.6,4.5h22.9a4.6,4.6,0,0,0,4.6-4.5V429.1a2.2,2.2,0,0,1,4-1.4L418.2,513a8.8,8.8,0,0,0,7,3.4h16.9a6.4,6.4,0,0,0,6.4-6.4V373.2a4.7,4.7,0,0,0-4.6-4.6H421A4.7,4.7,0,0,0,416.4,373.2Z"/><path class="cls-11" d="M1580.4,373.2v79.9a2.2,2.2,0,0,1-4,1.3l-62.6-82.3a8.9,8.9,0,0,0-7-3.5h-19.2a6.5,6.5,0,0,0-6.4,6.5V511.9a4.5,4.5,0,0,0,4.6,4.5h22.9a4.6,4.6,0,0,0,4.6-4.5V429.1a2.2,2.2,0,0,1,3.9-1.4l65,85.3a8.7,8.7,0,0,0,7,3.4h16.9a6.4,6.4,0,0,0,6.4-6.4V373.2a4.7,4.7,0,0,0-4.6-4.6H1585A4.6,4.6,0,0,0,1580.4,373.2Z"/><path class="cls-12" d="M786.4,475a4.9,4.9,0,0,0-6.7-.3,81.4,81.4,0,0,1-14,9.6c-5.9,3.1-13,4.7-21.5,4.7a40.3,40.3,0,0,1-30.9-13.8,46.9,46.9,0,0,1-8.7-14.7,48.7,48.7,0,0,1-3.2-18v-.4a47.7,47.7,0,0,1,3.2-17.8,45.3,45.3,0,0,1,8.8-14.7,41,41,0,0,1,30.8-13.5,45.7,45.7,0,0,1,20.2,4.4,81.4,81.4,0,0,1,14,9.1,4.9,4.9,0,0,0,6.9-.6l14.3-16.4a5.1,5.1,0,0,0-.5-7.1,87,87,0,0,0-7.4-5.9,63.6,63.6,0,0,0-12.8-7.1,77.1,77.1,0,0,0-15.6-4.7,98.7,98.7,0,0,0-18.8-1.7,79.7,79.7,0,0,0-31.3,6,73.7,73.7,0,0,0-24.3,16.5,77.8,77.8,0,0,0-15.8,24.3,76.9,76.9,0,0,0-5.7,29.6v.5a77.8,77.8,0,0,0,5.7,29.7,74.1,74.1,0,0,0,15.8,24.2A76.3,76.3,0,0,0,713,513.1a77.4,77.4,0,0,0,30.2,5.8,95.3,95.3,0,0,0,19.4-1.7,71.6,71.6,0,0,0,16-5.3,65,65,0,0,0,13.3-8.4,80.3,80.3,0,0,0,8.3-7.3,5,5,0,0,0,.1-7.1Z"/><path class="cls-13" d="M985.5,373.2v51.1a2.7,2.7,0,0,1-2.8,2.8H928.4a2.7,2.7,0,0,1-2.8-2.8V373.2a4.7,4.7,0,0,0-4.6-4.6H897.6a4.6,4.6,0,0,0-4.5,4.6V511.9a4.5,4.5,0,0,0,4.5,4.5H921a4.6,4.6,0,0,0,4.6-4.5v-52a2.8,2.8,0,0,1,2.8-2.8h54.3a2.8,2.8,0,0,1,2.8,2.8v52a4.6,4.6,0,0,0,4.6,4.5h23.4a4.5,4.5,0,0,0,4.5-4.5V373.2a4.6,4.6,0,0,0-4.5-4.6H990.1A4.7,4.7,0,0,0,985.5,373.2Z"/><path class="cls-14" d="M1190.5,367.6h-16a10.5,10.5,0,0,0-9.7,6.4l-58.3,136.8a4,4,0,0,0,3.7,5.6h21.7a8.2,8.2,0,0,0,7.5-5l11.4-28.1,11.6-28.7,17.4-42.5a2.4,2.4,0,0,1,4.5,0l17.4,42.5,11.6,28.7,11.5,28.1a8,8,0,0,0,7.4,5h22.5a4,4,0,0,0,3.7-5.6L1200.2,374A10.6,10.6,0,0,0,1190.5,367.6Z"/><path class="cls-15" d="M1348.4,373.2V511.9a4.5,4.5,0,0,0,4.6,4.5h23.3a4.5,4.5,0,0,0,4.6-4.5V373.2a4.6,4.6,0,0,0-4.6-4.6H1353A4.6,4.6,0,0,0,1348.4,373.2Z"/></g></svg>