<svg xmlns="http://www.w3.org/2000/svg" xmlns:xlink="http://www.w3.org/1999/xlink" viewBox="0 0 1000 1000"><defs><style>.cls-1{fill:url(#linear-gradient);}.cls-2{fill:url(#linear-gradient-2);}.cls-3{fill:url(#linear-gradient-3);}.cls-4{fill:url(#linear-gradient-4);}.cls-5{opacity:0.15;}.cls-6{fill:url(#linear-gradient-5);}.cls-7{fill:url(#linear-gradient-6);}.cls-8{fill:url(#linear-gradient-7);}.cls-9{fill:url(#linear-gradient-8);}.cls-10{fill:url(#linear-gradient-9);}.cls-11{fill:url(#linear-gradient-10);}.cls-12{fill:url(#linear-gradient-11);}.cls-13{fill:url(#linear-gradient-12);}.cls-14{fill:url(#linear-gradient-13);}.cls-15{fill:url(#linear-gradient-14);}.cls-16{fill:url(#linear-gradient-15);}.cls-17{fill:url(#linear-gradient-16);}.cls-18{fill:url(#linear-gradient-17);}.cls-19{fill:url(#linear-gradient-18);}.cls-20{fill:url(#linear-gradient-19);}.cls-21{fill:url(#linear-gradient-20);}.cls-22{fill:url(#linear-gradient-21);}.cls-23{fill:url(#linear-gradient-22);}.cls-24{fill:url(#linear-gradient-23);}.cls-25{fill:url(#linear-gradient-24);}.cls-26{fill:url(#linear-gradient-25);}.cls-27{fill:url(#linear-gradient-26);}.cls-28{fill:url(#linear-gradient-27);}.cls-29{fill:url(#linear-gradient-28);}.cls-30{fill:url(#linear-gradient-29);}.cls-31{fill:url(#linear-gradient-30);}.cls-32{fill:url(#linear-gradient-31);}.cls-33{fill:url(#linear-gradient-32);}.cls-34{fill:url(#linear-gradient-33);}.cls-35{fill:url(#linear-gradient-34);}.cls-36{fill:url(#linear-gradient-35);}.cls-37{fill:url(#linear-gradient-36);}.cls-38{fill:url(#linear-gradient-37);}.cls-39{fill:url(#linear-gradient-38);}.cls-40{fill:url(#linear-gradient-39);}</style><linearGradient id="linear-gradient" x1="592.51" y1="399.88" x2="859.99" y2="399.88" gradientUnits="userSpaceOnUse"><stop offset="0" stop-color="#3c4449"/><stop offset="1" stop-color="#293033"/></linearGradient><linearGradient id="linear-gradient-2" x1="601.37" y1="230.28" x2="859.99" y2="230.28" xlink:href="#linear-gradient"/><linearGradient id="linear-gradient-3" x1="82.19" y1="229.76" x2="315" y2="462.57" xlink:href="#linear-gradient"/><linearGradient id="linear-gradient-4" x1="325.7" y1="214.65" x2="526.6" y2="415.55" xlink:href="#linear-gradient"/><linearGradient id="linear-gradient-5" x1="416.98" y1="315.09" x2="743.11" y2="315.09" xlink:href="#linear-gradient"/><linearGradient id="linear-gradient-6" x1="125.24" y1="531.81" x2="125.24" y2="815.28" xlink:href="#linear-gradient"/><linearGradient id="linear-gradient-7" x1="220.08" y1="531.81" x2="220.08" y2="815.28" xlink:href="#linear-gradient"/><linearGradient id="linear-gradient-8" x1="322.57" y1="531.81" x2="322.57" y2="815.28" xlink:href="#linear-gradient"/><linearGradient id="linear-gradient-9" x1="436.43" y1="531.81" x2="436.43" y2="815.28" xlink:href="#linear-gradient"/><linearGradient id="linear-gradient-10" x1="548.86" y1="531.81" x2="548.86" y2="815.28" xlink:href="#linear-gradient"/><linearGradient id="linear-gradient-11" x1="659.17" y1="531.81" x2="659.17" y2="815.28" xlink:href="#linear-gradient"/><linearGradient id="linear-gradient-12" x1="760.38" y1="531.81" x2="760.38" y2="815.28" xlink:href="#linear-gradient"/><linearGradient id="linear-gradient-13" x1="867.88" y1="531.81" x2="867.88" y2="815.28" xlink:href="#linear-gradient"/><linearGradient id="linear-gradient-14" x1="130.14" y1="531.81" x2="130.14" y2="815.28" xlink:href="#linear-gradient"/><linearGradient id="linear-gradient-15" x1="256.19" y1="531.81" x2="256.19" y2="815.28" xlink:href="#linear-gradient"/><linearGradient id="linear-gradient-16" x1="876.72" y1="531.81" x2="876.72" y2="815.28" xlink:href="#linear-gradient"/><linearGradient id="linear-gradient-17" x1="443.7" y1="531.81" x2="443.7" y2="815.28" xlink:href="#linear-gradient"/><linearGradient id="linear-gradient-18" x1="561.5" y1="531.81" x2="561.5" y2="815.28" xlink:href="#linear-gradient"/><linearGradient id="linear-gradient-19" x1="682.48" y1="531.81" x2="682.48" y2="815.28" xlink:href="#linear-gradient"/><linearGradient id="linear-gradient-20" x1="779.6" y1="531.81" x2="779.6" y2="815.28" xlink:href="#linear-gradient"/><linearGradient id="linear-gradient-21" x1="106.39" y1="531.81" x2="106.39" y2="815.28" xlink:href="#linear-gradient"/><linearGradient id="linear-gradient-22" x1="150.38" y1="531.81" x2="150.38" y2="815.28" xlink:href="#linear-gradient"/><linearGradient id="linear-gradient-23" x1="190.34" y1="531.81" x2="190.34" y2="815.28" xlink:href="#linear-gradient"/><linearGradient id="linear-gradient-24" x1="235.43" y1="531.81" x2="235.43" y2="815.28" xlink:href="#linear-gradient"/><linearGradient id="linear-gradient-25" x1="266.48" y1="531.81" x2="266.48" y2="815.28" xlink:href="#linear-gradient"/><linearGradient id="linear-gradient-26" x1="297.11" y1="531.81" x2="297.11" y2="815.28" xlink:href="#linear-gradient"/><linearGradient id="linear-gradient-27" x1="340.06" y1="531.81" x2="340.06" y2="815.28" xlink:href="#linear-gradient"/><linearGradient id="linear-gradient-28" x1="423.11" y1="531.81" x2="423.11" y2="815.28" xlink:href="#linear-gradient"/><linearGradient id="linear-gradient-29" x1="477.49" y1="531.81" x2="477.49" y2="815.28" xlink:href="#linear-gradient"/><linearGradient id="linear-gradient-30" x1="521.79" y1="531.81" x2="521.79" y2="815.28" xlink:href="#linear-gradient"/><linearGradient id="linear-gradient-31" x1="564.24" y1="531.81" x2="564.24" y2="815.28" xlink:href="#linear-gradient"/><linearGradient id="linear-gradient-32" x1="629.21" y1="531.81" x2="629.21" y2="815.28" xlink:href="#linear-gradient"/><linearGradient id="linear-gradient-33" x1="665.24" y1="531.81" x2="665.24" y2="815.28" xlink:href="#linear-gradient"/><linearGradient id="linear-gradient-34" x1="709.46" y1="531.81" x2="709.46" y2="815.28" xlink:href="#linear-gradient"/><linearGradient id="linear-gradient-35" x1="754.09" y1="531.81" x2="754.09" y2="815.28" xlink:href="#linear-gradient"/><linearGradient id="linear-gradient-36" x1="788.05" y1="531.81" x2="788.05" y2="815.28" xlink:href="#linear-gradient"/><linearGradient id="linear-gradient-37" x1="823.9" y1="531.81" x2="823.9" y2="815.28" xlink:href="#linear-gradient"/><linearGradient id="linear-gradient-38" x1="865.56" y1="531.81" x2="865.56" y2="815.28" xlink:href="#linear-gradient"/><linearGradient id="linear-gradient-39" x1="901.77" y1="531.81" x2="901.77" y2="815.28" xlink:href="#linear-gradient"/></defs><title>LOC_logo_text_tagline_LowCap_grey</title><g id="Layer_1" data-name="Layer 1"><path class="cls-1" d="M832.5,342.6h0c21,0,34.2,22.6,24,41l-1.5,2.6A142.3,142.3,0,0,1,701.8,454,139.8,139.8,0,0,1,649,430.4a143.8,143.8,0,0,1-39.6-43.3,142.2,142.2,0,0,1-16.9-44.5h56.8a87,87,0,0,0,159,14.3A27.7,27.7,0,0,1,832.5,342.6Z"/><path class="cls-2" d="M601.9,262.3c-1.6-3.2,1-7,2.4-9.8a144.6,144.6,0,0,1,65.3-65.2,141.9,141.9,0,0,1,91.1-11.4c30.3,6.3,59,22.8,78.9,46.6,2.2,2.8,4.7,5.5,6.8,8.4s4.3,6.1,6.3,9.2,2.6,4.3,3.8,6.5c10.2,18.4-3,41-24,41h0A27.8,27.8,0,0,1,808.2,273a88.4,88.4,0,0,0-28.5-30.8,87,87,0,0,0-103.9,6.2,91.6,91.6,0,0,0-8.4,8.1c-2.6,2.8-4.8,5.7-8.4,7.3s-5.9,1.4-9,1.4H613.3c-2.2,0-4.4.1-6.6,0A5.3,5.3,0,0,1,601.9,262.3Z"/><path class="cls-3" d="M291.9,429.7a26.9,26.9,0,0,1-8,19.4,27.4,27.4,0,0,1-19.5,8.1H167.5A27.5,27.5,0,0,1,140,429.7V200.4a27.5,27.5,0,0,1,55,0V385.7a16.5,16.5,0,0,0,16.5,16.5h52.9A27.5,27.5,0,0,1,291.9,429.7Z"/><path class="cls-4" d="M565.6,342.6a142,142,0,1,1,0-55H508.9a82.8,82.8,0,0,0-11.3-22.4,77.9,77.9,0,0,0-9.8-11.7,87,87,0,1,0,21.1,89.1Z"/><path class="cls-5" d="M508.9,287.6h0a84.3,84.3,0,0,0-11.3-22.4l68,22.4Z"/><path class="cls-5" d="M649.2,342.6h0A84.3,84.3,0,0,0,660.5,365l-68-22.4Z"/><path class="cls-6" d="M743.1,315.1a27.5,27.5,0,0,1-27.5,27.5H442.5a27.5,27.5,0,0,1,0-55H715.6A27.5,27.5,0,0,1,743.1,315.1Z"/><path class="cls-7" d="M156.1,619.7H120.8a5.5,5.5,0,0,1-5.5-5.5V539.7a6.2,6.2,0,0,0-6.2-6.1H94.4a6.1,6.1,0,0,0-6.1,6.1v95.8a10,10,0,0,0,10,10h57.8a6.1,6.1,0,0,0,6.1-6.1V625.8A6.1,6.1,0,0,0,156.1,619.7Z"/><path class="cls-8" d="M212.7,554.5h39.9a6.1,6.1,0,0,0,6.1-6.1v-8.7a6.1,6.1,0,0,0-6.1-6.1H191.5a10.1,10.1,0,0,0-10,10.1v91.8a10,10,0,0,0,10,10h60.9a6.1,6.1,0,0,0,6.1-6.1v-8.5a6.1,6.1,0,0,0-6.1-6.1H212.7a4.3,4.3,0,0,1-4.3-4.3V602.3a4.3,4.3,0,0,1,4.3-4.3h32.1a6.1,6.1,0,0,0,6.1-6.1v-7.8a6.1,6.1,0,0,0-6.1-6H212.7a4.4,4.4,0,0,1-4.3-4.3V558.7A4.3,4.3,0,0,1,212.7,554.5Z"/><path class="cls-9" d="M373.4,637.3,337,538.7a7.8,7.8,0,0,0-7.3-5.1H315.2a7.8,7.8,0,0,0-7.3,5.1l-36.2,98.6a6.1,6.1,0,0,0,5.7,8.2H293a6.1,6.1,0,0,0,5.9-4.3l21.5-69.5a2.1,2.1,0,0,1,4.1,0l21.6,69.5a6.1,6.1,0,0,0,5.9,4.3h15.7A6.1,6.1,0,0,0,373.4,637.3Z"/><path class="cls-10" d="M473.7,559.3a47.4,47.4,0,0,0-18.5-18.9,53,53,0,0,0-26.7-6.8h-26a10.1,10.1,0,0,0-10,10.1v91.8a10,10,0,0,0,10,10h26.8a51.1,51.1,0,0,0,26.3-6.9,47.4,47.4,0,0,0,18.3-19.1,57.9,57.9,0,0,0,6.5-27.5v-5.2A58.5,58.5,0,0,0,473.7,559.3ZM452.9,592c0,10.8-2.1,19-6.2,24.5s-10.1,8.3-17.9,8.3H424a4.5,4.5,0,0,1-4.5-4.5V559a4.5,4.5,0,0,1,4.5-4.5h4.5c8,0,14,2.7,18.2,8.2s6.2,13.6,6.2,24.4Z"/><path class="cls-11" d="M589.5,533.6H574.9a6.1,6.1,0,0,0-6.1,6.1V574a4,4,0,0,1-4,4.1H533.1a4,4,0,0,1-4-4.1V539.7a6.2,6.2,0,0,0-6.1-6.1H508.2a6.1,6.1,0,0,0-6.1,6.1v99.7a6.1,6.1,0,0,0,6.1,6.1H523a6.1,6.1,0,0,0,6.1-6.1V602.8a4,4,0,0,1,4-4h31.7a4,4,0,0,1,4,4v36.6a6.1,6.1,0,0,0,6.1,6.1h14.6a6.1,6.1,0,0,0,6.1-6.1V539.7A6.1,6.1,0,0,0,589.5,533.6Z"/><path class="cls-12" d="M651.8,554.5h39.9a6.1,6.1,0,0,0,6.1-6.1v-8.7a6.1,6.1,0,0,0-6.1-6.1H630.6a10.1,10.1,0,0,0-10,10.1v91.8a10,10,0,0,0,10,10h60.9a6.1,6.1,0,0,0,6.1-6.1v-8.5a6.1,6.1,0,0,0-6.1-6.1H651.8a4.3,4.3,0,0,1-4.3-4.3V602.3a4.3,4.3,0,0,1,4.3-4.3h32.1a6,6,0,0,0,6-6.1v-7.8a6,6,0,0,0-6-6H651.8a4.3,4.3,0,0,1-4.3-4.3V558.7A4.2,4.2,0,0,1,651.8,554.5Z"/><path class="cls-13" d="M803.8,639.8l-20.4-40.6c6.7-3.2,11.6-7.3,14.7-12.5s4.8-11.5,4.8-19.3c0-10.7-3.8-19-11.2-24.9s-17.9-8.9-31.2-8.9H726.6a10.1,10.1,0,0,0-10.1,10.1v95.7a6.1,6.1,0,0,0,6.1,6.1h14.8a6.1,6.1,0,0,0,6.1-6.1V608.6a2.6,2.6,0,0,1,2.6-2.6h8.3a5.8,5.8,0,0,1,5.3,3.2l16.4,33a6.3,6.3,0,0,0,5.5,3.3h18.7A3.9,3.9,0,0,0,803.8,639.8Zm-31.7-58.6c-2.6,2.6-6.4,4-11.6,4H746.1a2.6,2.6,0,0,1-2.6-2.6V557a2.6,2.6,0,0,1,2.6-2.6h14.4c5.1,0,8.9,1.4,11.6,4.1s3.9,6.5,3.9,11.4S774.7,578.5,772.1,581.2Z"/><path class="cls-14" d="M893.6,586.8a98,98,0,0,0-19.1-8q-11.6-3.7-16.2-7.2c-3.1-2.4-4.6-5-4.6-7.8a9.7,9.7,0,0,1,4.2-8.1c2.8-2.2,6.6-3.2,11.4-3.2s8.5,1.2,11.3,3.7a11.7,11.7,0,0,1,3.7,6.2,5.9,5.9,0,0,0,5.9,4.4H905a6.1,6.1,0,0,0,6-7.2,28.5,28.5,0,0,0-4.6-10.9,33.9,33.9,0,0,0-14.8-12.3,51.9,51.9,0,0,0-21.7-4.3,60.7,60.7,0,0,0-22.3,3.9q-9.9,4.1-15.3,11.1a26.5,26.5,0,0,0-5.4,16.4c0,12.5,7.2,22.3,21.7,29.4a136.9,136.9,0,0,0,17.2,6.8c7.1,2.4,12,4.7,14.8,6.9a11.2,11.2,0,0,1,4.2,9.2,9.4,9.4,0,0,1-3.9,8.1c-2.6,1.9-6.1,2.9-10.6,2.9-7,0-12-1.5-15.1-4.3a13.8,13.8,0,0,1-4.2-8.3,6.3,6.3,0,0,0-6.2-5H830.2a6.2,6.2,0,0,0-6.1,7.3,33.3,33.3,0,0,0,5,12.3c3.7,5.7,9.2,10.1,16.6,13.4a60.7,60.7,0,0,0,24.6,4.9c12.9,0,23-2.8,30.4-8.4s11-13.3,11-23.1C911.7,603.4,905.7,593.8,893.6,586.8Z"/><path class="cls-15" d="M168.9,688.9a36.4,36.4,0,0,0-8.7-12.8,39.9,39.9,0,0,0-13.2-8.7,43.7,43.7,0,0,0-16.8-3.2,44.5,44.5,0,0,0-16.8,3.2,41.7,41.7,0,0,0-13.3,8.8,40.8,40.8,0,0,0-8.7,12.9,39.8,39.8,0,0,0-3.1,15.8v.3A39.8,39.8,0,0,0,91.4,721a37.5,37.5,0,0,0,8.6,12.8,45,45,0,0,0,13.3,8.7,43.6,43.6,0,0,0,16.7,3.2,44.6,44.6,0,0,0,16.9-3.2,41.8,41.8,0,0,0,13.2-8.8,39.2,39.2,0,0,0,8.7-12.9,38.6,38.6,0,0,0,3.2-15.9v-.2A39.8,39.8,0,0,0,168.9,688.9Zm-15,16.3a25.5,25.5,0,0,1-1.8,9.5,24.2,24.2,0,0,1-4.8,7.8,23.7,23.7,0,0,1-7.5,5.3,24.6,24.6,0,0,1-19.2-.1,23.7,23.7,0,0,1-7.5-5.3,25.9,25.9,0,0,1-5-7.9,27.7,27.7,0,0,1-1.7-9.6v-.2a27.1,27.1,0,0,1,1.7-9.5,24,24,0,0,1,4.9-7.8,20.9,20.9,0,0,1,7.4-5.3,23.2,23.2,0,0,1,9.6-1.9,21.7,21.7,0,0,1,9.6,2,22.6,22.6,0,0,1,7.6,5.3,22.9,22.9,0,0,1,4.9,7.9,25.5,25.5,0,0,1,1.8,9.5Z"/><path class="cls-16" d="M274.1,668v42.6a1.2,1.2,0,0,1-2.1.7l-33.4-43.9a4.7,4.7,0,0,0-3.8-1.9H224.6a3.5,3.5,0,0,0-3.4,3.5v72.9a2.4,2.4,0,0,0,2.4,2.4h12.3a2.4,2.4,0,0,0,2.4-2.4V697.8a1.2,1.2,0,0,1,2.1-.8L275,742.5a4.6,4.6,0,0,0,3.8,1.8h9a3.4,3.4,0,0,0,3.4-3.4V668a2.5,2.5,0,0,0-2.5-2.5H276.5A2.5,2.5,0,0,0,274.1,668Z"/><path class="cls-17" d="M894.6,668v42.6a1.2,1.2,0,0,1-2.1.7l-33.4-43.9a4.7,4.7,0,0,0-3.7-1.9H845.1a3.5,3.5,0,0,0-3.4,3.5v72.9a2.5,2.5,0,0,0,2.5,2.4h12.2a2.4,2.4,0,0,0,2.4-2.4V697.8a1.2,1.2,0,0,1,2.2-.8l34.6,45.5a4.5,4.5,0,0,0,3.7,1.8h9a3.4,3.4,0,0,0,3.4-3.4V668a2.5,2.5,0,0,0-2.4-2.5H897.1A2.5,2.5,0,0,0,894.6,668Z"/><path class="cls-18" d="M471.3,722.3a2.6,2.6,0,0,0-3.6-.2,37.7,37.7,0,0,1-7.4,5.1,23.8,23.8,0,0,1-11.5,2.5,21.7,21.7,0,0,1-9.2-2,22.4,22.4,0,0,1-7.2-5.3,25.1,25.1,0,0,1-4.7-7.9,27.7,27.7,0,0,1-1.7-9.6v-.2a27.1,27.1,0,0,1,1.7-9.5,23.6,23.6,0,0,1,4.7-7.8,21.9,21.9,0,0,1,16.4-7.2,25.2,25.2,0,0,1,10.8,2.3,41.2,41.2,0,0,1,7.4,4.9,2.7,2.7,0,0,0,3.7-.3l7.6-8.8a2.7,2.7,0,0,0-.2-3.8c-1.2-1.1-2.6-2.1-3.9-3.1a32.9,32.9,0,0,0-6.9-3.8,38.5,38.5,0,0,0-8.3-2.5,51.6,51.6,0,0,0-10-.9,42.9,42.9,0,0,0-16.7,3.2,38.9,38.9,0,0,0-12.9,8.8,40.2,40.2,0,0,0-8.5,12.9,41.5,41.5,0,0,0-3,15.8v.3a41.5,41.5,0,0,0,3,15.8,39.2,39.2,0,0,0,21.3,21.5,40.6,40.6,0,0,0,16.1,3.2,46.1,46.1,0,0,0,10.3-1,32.6,32.6,0,0,0,8.5-2.8,37.5,37.5,0,0,0,7.2-4.4,53.4,53.4,0,0,0,4.4-3.9,2.7,2.7,0,0,0,0-3.9Z"/><path class="cls-19" d="M577.5,668v27.2a1.5,1.5,0,0,1-1.5,1.5H547a1.5,1.5,0,0,1-1.5-1.5V668a2.5,2.5,0,0,0-2.4-2.5H530.6a2.5,2.5,0,0,0-2.4,2.5v73.9a2.4,2.4,0,0,0,2.4,2.4h12.5a2.4,2.4,0,0,0,2.4-2.4V714.2a1.5,1.5,0,0,1,1.5-1.5h29a1.5,1.5,0,0,1,1.5,1.5v27.7a2.4,2.4,0,0,0,2.4,2.4h12.5a2.4,2.4,0,0,0,2.4-2.4V668a2.5,2.5,0,0,0-2.4-2.5H579.9A2.5,2.5,0,0,0,577.5,668Z"/><path class="cls-20" d="M686.7,665h-8.5a5.7,5.7,0,0,0-5.2,3.4l-31,73a2.1,2.1,0,0,0,2,2.9h11.5a4.3,4.3,0,0,0,4-2.6l6.1-15,6.2-15.3,9.3-22.7a1.2,1.2,0,0,1,2.3,0l9.3,22.7,6.2,15.3,6.1,15a4.4,4.4,0,0,0,4,2.6h12a2.1,2.1,0,0,0,2-2.9l-31.1-73A5.6,5.6,0,0,0,686.7,665Z"/><path class="cls-21" d="M770.9,668v73.9a2.5,2.5,0,0,0,2.5,2.4h12.4a2.5,2.5,0,0,0,2.5-2.4V668a2.5,2.5,0,0,0-2.5-2.5H773.4A2.5,2.5,0,0,0,770.9,668Z"/><path class="cls-22" d="M96.2,782.6a5.2,5.2,0,0,0,2,2.5,12.4,12.4,0,0,0,4,2.1,62.6,62.6,0,0,0,6.5,1.8c5.4,1.2,9.4,2.8,12,5a10.9,10.9,0,0,1,3.8,8.8,13.1,13.1,0,0,1-1.2,5.6,13.4,13.4,0,0,1-3.4,4.4,16.2,16.2,0,0,1-5.2,2.8,22.9,22.9,0,0,1-6.6.9,30.4,30.4,0,0,1-10.7-1.8,31.1,31.1,0,0,1-9.1-5.8l3.4-4.1a26.5,26.5,0,0,0,7.6,5.2,22.9,22.9,0,0,0,9,1.7,12.5,12.5,0,0,0,7.8-2.3,7,7,0,0,0,2.9-6,7.5,7.5,0,0,0-.5-3.1,7.2,7.2,0,0,0-1.9-2.5,17.6,17.6,0,0,0-3.9-2,53.9,53.9,0,0,0-6.3-1.7,48.2,48.2,0,0,1-7.2-2.1,17.4,17.4,0,0,1-5.1-2.8,11.4,11.4,0,0,1-3-3.9,13.9,13.9,0,0,1-1-5.3,11.8,11.8,0,0,1,1.2-5.3,13.4,13.4,0,0,1,3.3-4.2,15.6,15.6,0,0,1,5.1-2.7,18.1,18.1,0,0,1,6.3-1.1,25.9,25.9,0,0,1,9.3,1.5,30.5,30.5,0,0,1,7.8,4.4l-3.2,4.2a28.7,28.7,0,0,0-6.8-4,21.8,21.8,0,0,0-7.2-1.2,13.3,13.3,0,0,0-4.2.6,10.3,10.3,0,0,0-3.3,1.7,7.2,7.2,0,0,0-2.1,2.5,6.4,6.4,0,0,0-.7,3.1A7.8,7.8,0,0,0,96.2,782.6Z"/><path class="cls-23" d="M140.1,815.8h-5.4V765.4h5.4v20.9a15.7,15.7,0,0,1,4.7-4.9,12.3,12.3,0,0,1,7.5-2.1,15,15,0,0,1,5.8,1.1,11.7,11.7,0,0,1,4.3,2.9,14.6,14.6,0,0,1,2.7,4.5,18.1,18.1,0,0,1,.9,5.8v22.2h-5.3V795a11.4,11.4,0,0,0-2.6-7.9c-1.7-2-4.1-2.9-7.3-2.9a10.6,10.6,0,0,0-4.3.8,9.8,9.8,0,0,0-3.4,2.3,8.4,8.4,0,0,0-2.2,3.5,11.4,11.4,0,0,0-.8,4.6Z"/><path class="cls-24" d="M184.5,785a52.7,52.7,0,0,0-5.1,1.9l-1.6-4.3a36.3,36.3,0,0,1,6-2.2,29.9,29.9,0,0,1,7-.8c4.9,0,8.7,1.2,11.3,3.6s3.9,6,3.9,10.8v21.8h-5.1v-5.3a16.2,16.2,0,0,1-5,4.2,14.7,14.7,0,0,1-7.9,1.9,16.1,16.1,0,0,1-4.9-.7,13.2,13.2,0,0,1-4.3-2.1,10.2,10.2,0,0,1-3-3.5,9.6,9.6,0,0,1-1.2-4.9,10,10,0,0,1,1.2-5,8.3,8.3,0,0,1,3.1-3.6,17.8,17.8,0,0,1,4.8-2.3,24.5,24.5,0,0,1,6.2-.7,35.4,35.4,0,0,1,6,.4,36.7,36.7,0,0,1,5,1.1v-1.2c0-3.3-.9-5.7-2.8-7.3s-4.5-2.5-7.8-2.5A25.6,25.6,0,0,0,184.5,785Zm-1.7,14.7a6.6,6.6,0,0,0-2.7,5.5,7,7,0,0,0,.7,3,7.4,7.4,0,0,0,2,2.3,8.7,8.7,0,0,0,2.9,1.4,12.1,12.1,0,0,0,3.4.5,17,17,0,0,0,4.6-.7,13.7,13.7,0,0,0,3.8-2,11,11,0,0,0,2.6-3.1,8.6,8.6,0,0,0,.9-3.9v-3.5l-4.6-1a34.2,34.2,0,0,0-5.9-.5A13.1,13.1,0,0,0,182.8,799.7Z"/><path class="cls-25" d="M252,805.8a17.1,17.1,0,0,1-3.8,5.9,15.4,15.4,0,0,1-5.5,3.6,15.1,15.1,0,0,1-6.3,1.3,16.5,16.5,0,0,1-4.6-.6,15.6,15.6,0,0,1-3.7-1.7,17.6,17.6,0,0,1-3-2.4,21.7,21.7,0,0,1-2.4-2.9v17.9h-5.3V780.1h5.3v7.2a24.2,24.2,0,0,1,2.5-3.1,18.1,18.1,0,0,1,3-2.5,14,14,0,0,1,3.7-1.7,15.2,15.2,0,0,1,4.5-.7,15.8,15.8,0,0,1,6.3,1.3,17.4,17.4,0,0,1,5.5,3.6,16.2,16.2,0,0,1,3.8,5.9,21.3,21.3,0,0,1,0,15.7Zm-5-13.5a14.8,14.8,0,0,0-2.7-4.4,13.8,13.8,0,0,0-4-2.8,13.3,13.3,0,0,0-4.9-.9,11.8,11.8,0,0,0-4.8,1,12.5,12.5,0,0,0-4.1,2.8,13,13,0,0,0-2.9,4.3,15.1,15.1,0,0,0,0,11.3,13.5,13.5,0,0,0,2.9,4.4,14.2,14.2,0,0,0,4.1,2.8,13.7,13.7,0,0,0,4.8,1,11.6,11.6,0,0,0,4.9-1,11.1,11.1,0,0,0,4-2.6,14.8,14.8,0,0,0,2.7-4.4,15,15,0,0,0,1-5.8A14.8,14.8,0,0,0,247,792.3Z"/><path class="cls-26" d="M263.4,772.3v-5.9h6.1v5.9Zm.4,43.5V780.1h5.3v35.7Z"/><path class="cls-27" d="M286.8,815.8h-5.3V780.1h5.3v6.2a16.9,16.9,0,0,1,4.7-4.9,12.6,12.6,0,0,1,7.5-2.1,15,15,0,0,1,5.8,1.1,11.7,11.7,0,0,1,4.3,2.9,12.9,12.9,0,0,1,2.7,4.5,18.1,18.1,0,0,1,.9,5.8v22.2h-5.3V795c0-3.4-.8-6-2.5-7.9s-4.2-2.9-7.4-2.9a9.8,9.8,0,0,0-4.2.8,8.9,8.9,0,0,0-3.4,2.3,8.6,8.6,0,0,0-2.3,3.5,13.4,13.4,0,0,0-.8,4.6Z"/><path class="cls-28" d="M356.8,817.2a13.9,13.9,0,0,1-3.6,5.5,15.5,15.5,0,0,1-5.8,3.2,21.9,21.9,0,0,1-7.5,1.1,30.8,30.8,0,0,1-8.6-1.2,28.2,28.2,0,0,1-7.6-3.7l2.4-4.2a25.3,25.3,0,0,0,6.5,3.4,21.3,21.3,0,0,0,7.2,1.2c4,0,7.2-1.1,9.5-3.2s3.5-5.3,3.5-9.5v-4.3a21,21,0,0,1-5.7,5.4,15.3,15.3,0,0,1-8.3,2.2,16.3,16.3,0,0,1-6.2-1.2,14.3,14.3,0,0,1-5.4-3.3,16,16,0,0,1-3.8-5.3,17.1,17.1,0,0,1-1.4-7,17.6,17.6,0,0,1,1.4-7.1,16,16,0,0,1,3.8-5.3,17,17,0,0,1,5.4-3.4,17.1,17.1,0,0,1,10.8-.6,14.5,14.5,0,0,1,3.8,1.6,13.9,13.9,0,0,1,3.1,2.3,32,32,0,0,1,2.5,2.7v-6.4h5.3v29.5A19.5,19.5,0,0,1,356.8,817.2Zm-4.9-26a11.3,11.3,0,0,0-3-3.8,13.3,13.3,0,0,0-4.1-2.5,13.9,13.9,0,0,0-5-.9,12.8,12.8,0,0,0-4.8.9,9.8,9.8,0,0,0-3.9,2.4,11.9,11.9,0,0,0-2.7,3.8,13.5,13.5,0,0,0-.9,5,11.2,11.2,0,0,0,1,5,10.5,10.5,0,0,0,2.7,3.9,11.4,11.4,0,0,0,3.9,2.5,12.7,12.7,0,0,0,4.7.9,13.9,13.9,0,0,0,5-.9,15.2,15.2,0,0,0,4.1-2.4,12.7,12.7,0,0,0,3-3.9,11.9,11.9,0,0,0,0-10Z"/><path class="cls-29" d="M421,767.3h4.5l13.2,40.5,13.9-40.4h5.7L441,816.2h-4.6l-13.3-39.3-13.3,39.3h-4.6l-17.3-48.8h6l13.8,40.4Z"/><path class="cls-30" d="M467.4,805.1a12.4,12.4,0,0,0,2.9,3.8,11.4,11.4,0,0,0,3.8,2.3,11.9,11.9,0,0,0,4.5.8,13.8,13.8,0,0,0,6.4-1.3,21.8,21.8,0,0,0,4.9-3.7l3.3,3a21.6,21.6,0,0,1-6.1,4.8,17.4,17.4,0,0,1-8.6,1.9,17.7,17.7,0,0,1-6.9-1.4,15.9,15.9,0,0,1-5.7-3.8,19,19,0,0,1-3.9-5.9,20.6,20.6,0,0,1-1.4-7.6,19.7,19.7,0,0,1,1.3-7.3,16.5,16.5,0,0,1,3.5-5.9,16.9,16.9,0,0,1,5.5-4,15.4,15.4,0,0,1,6.8-1.5,16.1,16.1,0,0,1,7.1,1.5,15,15,0,0,1,5.2,4.1,16,16,0,0,1,3.3,6,25.5,25.5,0,0,1,1.1,7.4v.7a2.8,2.8,0,0,1-.1.9H466A15.9,15.9,0,0,0,467.4,805.1Zm21.5-9.1a14,14,0,0,0-1-4.6,10.7,10.7,0,0,0-2.2-3.9,10.2,10.2,0,0,0-3.4-2.7,11.2,11.2,0,0,0-4.7-1,8.8,8.8,0,0,0-4.3,1,9.8,9.8,0,0,0-3.5,2.5,13,13,0,0,0-2.5,3.9A14.1,14.1,0,0,0,466,796Z"/><path class="cls-31" d="M538.4,805.8a19,19,0,0,1-3.9,5.9,15.1,15.1,0,0,1-5.4,3.6,15.8,15.8,0,0,1-6.3,1.3,16.5,16.5,0,0,1-4.6-.6,14,14,0,0,1-3.7-1.7,15,15,0,0,1-3.1-2.4,20.9,20.9,0,0,1-2.3-2.9v6.8h-5.4V765.4h5.4v21.9a23.4,23.4,0,0,1,2.4-3.1,18.1,18.1,0,0,1,3-2.5,15.6,15.6,0,0,1,3.7-1.7,16.4,16.4,0,0,1,4.6-.7,15,15,0,0,1,6.2,1.3,15.4,15.4,0,0,1,5.5,3.6,17.9,17.9,0,0,1,3.9,5.9,22.7,22.7,0,0,1,0,15.7Zm-5-13.5a13.3,13.3,0,0,0-2.8-4.4,12.6,12.6,0,0,0-4-2.8,12.8,12.8,0,0,0-4.8-.9,11.2,11.2,0,0,0-4.8,1,12.9,12.9,0,0,0-4.2,2.8,13,13,0,0,0-2.9,4.3,14.7,14.7,0,0,0-1,5.6,14.8,14.8,0,0,0,1,5.7,13.5,13.5,0,0,0,2.9,4.4,14.7,14.7,0,0,0,4.2,2.8,12.9,12.9,0,0,0,4.8,1,11.9,11.9,0,0,0,4.9-1,13.1,13.1,0,0,0,4-2.6,14.8,14.8,0,0,0,2.7-4.4,17,17,0,0,0,0-11.5Z"/><path class="cls-32" d="M549.7,772.3v-4.9h30.9v4l-15.2,16.9a30,30,0,0,1,6.1,1.2,15.4,15.4,0,0,1,5.1,2.6,11.4,11.4,0,0,1,3.4,4.1,12.1,12.1,0,0,1,1.3,5.8,14.6,14.6,0,0,1-1.2,6,15.1,15.1,0,0,1-8.6,7.6,18.1,18.1,0,0,1-6.3,1.1,22.4,22.4,0,0,1-10.6-2.4,21.6,21.6,0,0,1-7.4-6.3l3.9-3.5a20.7,20.7,0,0,0,6.3,5.3,15.4,15.4,0,0,0,7.9,1.9,11,11,0,0,0,4.1-.7,8.8,8.8,0,0,0,3.4-1.9,8.4,8.4,0,0,0,2.2-3,8.5,8.5,0,0,0-2.9-10.9,18,18,0,0,0-9.8-2.4h-3.1l-1.1-3.2,15.3-17.3Z"/><path class="cls-33" d="M631.9,815.8h-5.4V772.5H610.2v-5.1h38v5.1H631.9Z"/><path class="cls-34" d="M682.5,805.2a19.9,19.9,0,0,1-4,5.9,17.8,17.8,0,0,1-5.9,4.1,19.3,19.3,0,0,1-14.9,0,18.2,18.2,0,0,1-5.8-4,17.9,17.9,0,0,1-3.9-5.9,19.5,19.5,0,0,1,0-14.5,18.9,18.9,0,0,1,9.8-10,19.3,19.3,0,0,1,14.9,0,17.6,17.6,0,0,1,5.9,4,17.9,17.9,0,0,1,3.9,5.9,19.5,19.5,0,0,1,0,14.5Zm-5.1-12.6a14.8,14.8,0,0,0-2.8-4.5,16,16,0,0,0-4.2-3,13.3,13.3,0,0,0-10.6,0,11.2,11.2,0,0,0-4.1,3,14.8,14.8,0,0,0-2.7,4.4,16.1,16.1,0,0,0-.9,5.4,14,14,0,0,0,1,5.4,13.5,13.5,0,0,0,2.7,4.5,13.7,13.7,0,0,0,4.2,2.9,11.7,11.7,0,0,0,5.3,1.1,13.2,13.2,0,0,0,5.3-1,11.2,11.2,0,0,0,4.1-3,12.1,12.1,0,0,0,2.7-4.3,14.2,14.2,0,0,0,1-5.5A14,14,0,0,0,677.4,792.6Z"/><path class="cls-35" d="M726.2,817.2a13.9,13.9,0,0,1-3.6,5.5,15.5,15.5,0,0,1-5.8,3.2,21.9,21.9,0,0,1-7.5,1.1,30.8,30.8,0,0,1-8.6-1.2,28.2,28.2,0,0,1-7.6-3.7l2.4-4.2a25.3,25.3,0,0,0,6.5,3.4,21.5,21.5,0,0,0,7.3,1.2,13.5,13.5,0,0,0,9.4-3.2c2.4-2.2,3.6-5.3,3.6-9.5v-4.3a23,23,0,0,1-5.8,5.4,15.3,15.3,0,0,1-8.3,2.2,16.3,16.3,0,0,1-6.2-1.2,14.3,14.3,0,0,1-5.4-3.3,16,16,0,0,1-3.8-5.3,17.1,17.1,0,0,1-1.4-7,17.6,17.6,0,0,1,1.4-7.1,16,16,0,0,1,3.8-5.3,17,17,0,0,1,5.4-3.4,17.1,17.1,0,0,1,10.8-.6,14.5,14.5,0,0,1,3.8,1.6,13.9,13.9,0,0,1,3.1,2.3,32,32,0,0,1,2.5,2.7v-6.4h5.3v29.5A19.5,19.5,0,0,1,726.2,817.2Zm-4.9-26a11.3,11.3,0,0,0-3-3.8,13.3,13.3,0,0,0-4.1-2.5,13.7,13.7,0,0,0-4.9-.9,13,13,0,0,0-4.9.9,9.8,9.8,0,0,0-3.9,2.4,11.9,11.9,0,0,0-2.7,3.8,13.5,13.5,0,0,0-.9,5,11.2,11.2,0,0,0,1,5,10.5,10.5,0,0,0,2.7,3.9,11.4,11.4,0,0,0,3.9,2.5,12.8,12.8,0,0,0,4.8.9,13.7,13.7,0,0,0,4.9-.9,15.2,15.2,0,0,0,4.1-2.4,12.7,12.7,0,0,0,3-3.9,11.9,11.9,0,0,0,0-10Z"/><path class="cls-36" d="M744,805.1a12.4,12.4,0,0,0,2.9,3.8,11.4,11.4,0,0,0,3.8,2.3,11.9,11.9,0,0,0,4.5.8,13.8,13.8,0,0,0,6.4-1.3,21.8,21.8,0,0,0,4.9-3.7l3.3,3a21.6,21.6,0,0,1-6.1,4.8,17.4,17.4,0,0,1-8.6,1.9,18.1,18.1,0,0,1-6.9-1.4,15.9,15.9,0,0,1-5.7-3.8,19,19,0,0,1-3.9-5.9,20.6,20.6,0,0,1-1.4-7.6,19.7,19.7,0,0,1,1.3-7.3,16.5,16.5,0,0,1,3.5-5.9,16.9,16.9,0,0,1,5.5-4,15.4,15.4,0,0,1,6.8-1.5,16.1,16.1,0,0,1,7.1,1.5,15,15,0,0,1,5.2,4.1,16,16,0,0,1,3.3,6,25.5,25.5,0,0,1,1.1,7.4v.7a2.8,2.8,0,0,1-.1.9H742.7A13.7,13.7,0,0,0,744,805.1Zm21.5-9.1a14,14,0,0,0-1-4.6,10.7,10.7,0,0,0-2.2-3.9,10.2,10.2,0,0,0-3.4-2.7,11.2,11.2,0,0,0-4.7-1,8.8,8.8,0,0,0-4.3,1,9.8,9.8,0,0,0-3.5,2.5,13,13,0,0,0-2.5,3.9,12.1,12.1,0,0,0-1.2,4.8Z"/><path class="cls-37" d="M787.5,805.7c0,2.2.6,3.7,1.7,4.6a6.5,6.5,0,0,0,4.3,1.3,10.3,10.3,0,0,0,2.6-.3,10.1,10.1,0,0,0,2.6-.9v4.5a10.5,10.5,0,0,1-2.9,1.2,17.8,17.8,0,0,1-3.5.4,12.9,12.9,0,0,1-4-.6,7.2,7.2,0,0,1-3.2-1.8A7.7,7.7,0,0,1,783,811a12.6,12.6,0,0,1-.8-4.6V784.8h-5v-4.7h5V769.3h5.3v10.8h11.4v4.7H787.5Z"/><path class="cls-38" d="M813.6,815.8h-5.3V765.4h5.3v20.9a16.9,16.9,0,0,1,4.7-4.9,12.6,12.6,0,0,1,7.5-2.1,15,15,0,0,1,5.8,1.1,11.7,11.7,0,0,1,4.3,2.9,12.9,12.9,0,0,1,2.7,4.5,18.1,18.1,0,0,1,.9,5.8v22.2h-5.3V795c0-3.4-.8-6-2.6-7.9s-4.1-2.9-7.3-2.9a9.8,9.8,0,0,0-4.2.8,10.1,10.1,0,0,0-3.5,2.3,9.5,9.5,0,0,0-2.2,3.5,13.4,13.4,0,0,0-.8,4.6Z"/><path class="cls-39" d="M855.5,805.1a12.1,12.1,0,0,0,2.8,3.8,12.9,12.9,0,0,0,3.9,2.3,11.2,11.2,0,0,0,4.5.8,14.1,14.1,0,0,0,6.4-1.3A21.8,21.8,0,0,0,878,807l3.3,3a22,22,0,0,1-6.2,4.8,17,17,0,0,1-8.5,1.9,17.4,17.4,0,0,1-6.9-1.4,15.9,15.9,0,0,1-5.7-3.8,17.4,17.4,0,0,1-3.9-5.9,18.7,18.7,0,0,1-1.4-7.6,21.9,21.9,0,0,1,1.2-7.3,18.3,18.3,0,0,1,3.6-5.9,16.5,16.5,0,0,1,5.4-4,15.8,15.8,0,0,1,6.9-1.5,16.4,16.4,0,0,1,7.1,1.5,16,16,0,0,1,5.2,4.1,19.3,19.3,0,0,1,3.3,6,25.5,25.5,0,0,1,1.1,7.4v.7c0,.3-.1.6-.1.9H854.1A15.9,15.9,0,0,0,855.5,805.1ZM877,796a17.1,17.1,0,0,0-1-4.6,10.7,10.7,0,0,0-2.2-3.9,11.3,11.3,0,0,0-3.4-2.7,11.6,11.6,0,0,0-4.7-1,9.5,9.5,0,0,0-4.4,1,10.7,10.7,0,0,0-3.5,2.5,12.8,12.8,0,0,0-2.4,3.9,14.1,14.1,0,0,0-1.3,4.8Z"/><path class="cls-40" d="M897.1,815.8h-5.3V780.1h5.3v9.3a25,25,0,0,1,2.5-4.1,14.5,14.5,0,0,1,7.4-5.2,11.9,11.9,0,0,1,4.7-.6v5.7h-.4a16.8,16.8,0,0,0-5.5,1,12.8,12.8,0,0,0-4.5,3.2,15.1,15.1,0,0,0-3.1,5.1,22,22,0,0,0-1.1,7.1Z"/></g></svg>