<svg xmlns="http://www.w3.org/2000/svg" xmlns:xlink="http://www.w3.org/1999/xlink" viewBox="0 0 1680.1 1680.1"><defs><style>.cls-1{fill:url(#linear-gradient);}.cls-2{fill:url(#linear-gradient-2);}.cls-3{fill:url(#linear-gradient-3);}.cls-4{fill:url(#linear-gradient-4);}.cls-5{opacity:0.15;}.cls-6{fill:url(#linear-gradient-5);}</style><linearGradient id="linear-gradient" x1="1031.72" y1="1015.73" x2="1585.91" y2="1015.73" gradientUnits="userSpaceOnUse"><stop offset="0" stop-color="#fff"/><stop offset="1" stop-color="#f7f7f7"/></linearGradient><linearGradient id="linear-gradient-2" x1="1050.09" y1="664.34" x2="1585.92" y2="664.34" xlink:href="#linear-gradient"/><linearGradient id="linear-gradient-3" x1="-25.63" y1="663.25" x2="456.73" y2="1145.62" xlink:href="#linear-gradient"/><linearGradient id="linear-gradient-4" x1="478.91" y1="631.94" x2="895.17" y2="1048.2" xlink:href="#linear-gradient"/><linearGradient id="linear-gradient-5" x1="668.03" y1="840.05" x2="1343.76" y2="840.05" xlink:href="#linear-gradient"/></defs><title>LOC_logo_only_white</title><g id="Layer_1" data-name="Layer 1"><path class="cls-1" d="M1528.9,897h0c43.6,0,70.8,46.8,49.7,85l-3,5.3a298.6,298.6,0,0,1-81.2,90.3,293.6,293.6,0,0,1-345.6,1.5,299.4,299.4,0,0,1-82-89.8,292.3,292.3,0,0,1-35.1-92.3h117.7a182.5,182.5,0,0,0,75.8,96.4c53,33.1,121,36,176.7,7.8a182.1,182.1,0,0,0,77-74.5A57,57,0,0,1,1528.9,897Z"/><path class="cls-2" d="M1051.1,730.6c-3.3-6.6,2.2-14.3,5.1-20.2a294.4,294.4,0,0,1,324-158.8c62.8,13.1,122.2,47.3,163.5,96.5,4.5,6,9.7,11.6,14.1,17.6s8.9,12.5,13,19c2.7,4.4,5.3,8.9,7.8,13.4,21.1,38.2-6.1,85-49.7,85h0c-21.1,0-40.2-11.8-50.4-30.3a180.4,180.4,0,0,0-58.9-63.7c-52-34.2-119.7-39.2-176-12.5a183,183,0,0,0-39.3,25.3,194.9,194.9,0,0,0-17.3,16.7c-5.4,5.9-10.1,11.8-17.6,15.2-6,2.7-12.2,2.9-18.6,2.9h-89.7C1056.9,736.5,1053,734.6,1051.1,730.6Z"/><path class="cls-3" d="M408.9,1077.6a57,57,0,0,1-56.9,56.9H151.1a56.9,56.9,0,0,1-56.9-56.9V602.5a57,57,0,1,1,113.9,0V986.3a34.4,34.4,0,0,0,34.3,34.3H352A57.1,57.1,0,0,1,408.9,1077.6Z"/><path class="cls-4" d="M976,897a294.4,294.4,0,0,1-497.1,151.2c-55.6-55.7-86.3-129.6-86.3-208.1s30.7-152.5,86.3-208.2,129.6-86.3,208.2-86.3A295.1,295.1,0,0,1,976,783.1H858.5a174.5,174.5,0,0,0-23.4-46.4A180.5,180.5,0,1,0,858.5,897Z"/><path class="cls-5" d="M858.5,783.1h0a174.5,174.5,0,0,0-23.4-46.4L976,783.1Z"/><path class="cls-5" d="M1149.1,897h0a177.8,177.8,0,0,0,23.5,46.4L1031.7,897Z"/><path class="cls-6" d="M1343.7,840a57,57,0,0,1-56.9,57H721a57,57,0,0,1,0-113.9h565.8A56.9,56.9,0,0,1,1343.7,840Z"/></g></svg>