<svg xmlns="http://www.w3.org/2000/svg" xmlns:xlink="http://www.w3.org/1999/xlink" viewBox="0 0 1680.4 637.3"><defs><style>.cls-1{fill:url(#linear-gradient);}.cls-2{fill:url(#linear-gradient-2);}.cls-3{fill:url(#linear-gradient-3);}.cls-4{fill:url(#linear-gradient-4);}.cls-5{fill:url(#linear-gradient-5);}.cls-6{fill:url(#linear-gradient-6);}.cls-7{fill:url(#linear-gradient-7);}.cls-8{fill:url(#linear-gradient-8);}.cls-9{fill:url(#linear-gradient-9);}.cls-10{fill:url(#linear-gradient-10);}.cls-11{fill:url(#linear-gradient-11);}.cls-12{fill:url(#linear-gradient-12);}.cls-13{fill:url(#linear-gradient-13);}.cls-14{fill:url(#linear-gradient-14);}.cls-15{fill:url(#linear-gradient-15);}.cls-16{fill:url(#linear-gradient-16);}.cls-17{fill:url(#linear-gradient-17);}.cls-18{fill:url(#linear-gradient-18);}.cls-19{fill:url(#linear-gradient-19);}.cls-20{fill:url(#linear-gradient-20);}.cls-21{fill:url(#linear-gradient-21);}.cls-22{fill:url(#linear-gradient-22);}.cls-23{fill:url(#linear-gradient-23);}.cls-24{fill:url(#linear-gradient-24);}.cls-25{fill:url(#linear-gradient-25);}.cls-26{fill:url(#linear-gradient-26);}.cls-27{fill:url(#linear-gradient-27);}.cls-28{fill:url(#linear-gradient-28);}.cls-29{fill:url(#linear-gradient-29);}.cls-30{fill:url(#linear-gradient-30);}.cls-31{fill:url(#linear-gradient-31);}.cls-32{fill:url(#linear-gradient-32);}.cls-33{fill:url(#linear-gradient-33);}.cls-34{fill:url(#linear-gradient-34);}</style><linearGradient id="linear-gradient" x1="149.95" y1="63.41" x2="149.95" y2="571.31" gradientUnits="userSpaceOnUse"><stop offset="0" stop-color="#af42f7"/><stop offset="1" stop-color="#4a008a"/></linearGradient><linearGradient id="linear-gradient-2" x1="324.62" y1="63.41" x2="324.62" y2="571.31" xlink:href="#linear-gradient"/><linearGradient id="linear-gradient-3" x1="513.4" y1="63.41" x2="513.4" y2="571.31" xlink:href="#linear-gradient"/><linearGradient id="linear-gradient-4" x1="723.1" y1="63.41" x2="723.1" y2="571.31" xlink:href="#linear-gradient"/><linearGradient id="linear-gradient-5" x1="930.17" y1="63.41" x2="930.17" y2="571.31" xlink:href="#linear-gradient"/><linearGradient id="linear-gradient-6" x1="1133.36" y1="63.41" x2="1133.36" y2="571.31" xlink:href="#linear-gradient"/><linearGradient id="linear-gradient-7" x1="1319.76" y1="63.41" x2="1319.76" y2="571.31" xlink:href="#linear-gradient"/><linearGradient id="linear-gradient-8" x1="1517.76" y1="63.41" x2="1517.76" y2="571.31" xlink:href="#linear-gradient"/><linearGradient id="linear-gradient-9" x1="158.98" y1="63.41" x2="158.98" y2="571.31" xlink:href="#linear-gradient"/><linearGradient id="linear-gradient-10" x1="391.13" y1="63.41" x2="391.13" y2="571.31" xlink:href="#linear-gradient"/><linearGradient id="linear-gradient-11" x1="1534.04" y1="63.41" x2="1534.04" y2="571.31" xlink:href="#linear-gradient"/><linearGradient id="linear-gradient-12" x1="736.49" y1="63.41" x2="736.49" y2="571.31" xlink:href="#linear-gradient"/><linearGradient id="linear-gradient-13" x1="953.47" y1="63.41" x2="953.47" y2="571.31" xlink:href="#linear-gradient"/><linearGradient id="linear-gradient-14" x1="1176.27" y1="63.41" x2="1176.27" y2="571.31" xlink:href="#linear-gradient"/><linearGradient id="linear-gradient-15" x1="1355.16" y1="63.41" x2="1355.16" y2="571.31" xlink:href="#linear-gradient"/><linearGradient id="linear-gradient-16" x1="110.17" y1="63.41" x2="110.17" y2="571.31" xlink:href="#linear-gradient"/><linearGradient id="linear-gradient-17" x1="186.21" y1="63.41" x2="186.21" y2="571.31" xlink:href="#linear-gradient"/><linearGradient id="linear-gradient-18" x1="269.92" y1="63.41" x2="269.92" y2="571.31" xlink:href="#linear-gradient"/><linearGradient id="linear-gradient-19" x1="351.58" y1="63.41" x2="351.58" y2="571.31" xlink:href="#linear-gradient"/><linearGradient id="linear-gradient-20" x1="400.46" y1="63.41" x2="400.46" y2="571.31" xlink:href="#linear-gradient"/><linearGradient id="linear-gradient-21" x1="458.84" y1="63.41" x2="458.84" y2="571.31" xlink:href="#linear-gradient"/><linearGradient id="linear-gradient-22" x1="543.25" y1="63.41" x2="543.25" y2="571.31" xlink:href="#linear-gradient"/><linearGradient id="linear-gradient-23" x1="678.43" y1="63.41" x2="678.43" y2="571.31" xlink:href="#linear-gradient"/><linearGradient id="linear-gradient-24" x1="776.45" y1="63.41" x2="776.45" y2="571.31" xlink:href="#linear-gradient"/><linearGradient id="linear-gradient-25" x1="851.69" y1="63.41" x2="851.69" y2="571.31" xlink:href="#linear-gradient"/><linearGradient id="linear-gradient-26" x1="920.6" y1="63.41" x2="920.6" y2="571.31" xlink:href="#linear-gradient"/><linearGradient id="linear-gradient-27" x1="1022.08" y1="63.41" x2="1022.08" y2="571.31" xlink:href="#linear-gradient"/><linearGradient id="linear-gradient-28" x1="1097.85" y1="63.41" x2="1097.85" y2="571.31" xlink:href="#linear-gradient"/><linearGradient id="linear-gradient-29" x1="1185.5" y1="63.41" x2="1185.5" y2="571.31" xlink:href="#linear-gradient"/><linearGradient id="linear-gradient-30" x1="1266.73" y1="63.41" x2="1266.73" y2="571.31" xlink:href="#linear-gradient"/><linearGradient id="linear-gradient-31" x1="1335.75" y1="63.41" x2="1335.75" y2="571.31" xlink:href="#linear-gradient"/><linearGradient id="linear-gradient-32" x1="1411.85" y1="63.41" x2="1411.85" y2="571.31" xlink:href="#linear-gradient"/><linearGradient id="linear-gradient-33" x1="1491.18" y1="63.41" x2="1491.18" y2="571.31" xlink:href="#linear-gradient"/><linearGradient id="linear-gradient-34" x1="1567.23" y1="63.41" x2="1567.23" y2="571.31" xlink:href="#linear-gradient"/></defs><title>LOC_text_tagline_AllCap_purple</title><g id="Layer_1" data-name="Layer 1"><path class="cls-1" d="M206.8,227.8h-65a10.2,10.2,0,0,1-10.2-10.3V80.4a11.3,11.3,0,0,0-11.3-11.2H93.1A11.2,11.2,0,0,0,81.9,80.4V256.8a18.5,18.5,0,0,0,18.5,18.5H206.8A11.2,11.2,0,0,0,218,264.1V239A11.2,11.2,0,0,0,206.8,227.8Z"/><path class="cls-2" d="M311,107.6h73.5a11.3,11.3,0,0,0,11.2-11.3V80.4a11.2,11.2,0,0,0-11.2-11.2H272a18.5,18.5,0,0,0-18.5,18.5V256.8A18.5,18.5,0,0,0,272,275.3H384.2a11.3,11.3,0,0,0,11.3-11.2V248.3a11.3,11.3,0,0,0-11.3-11.2H311a7.9,7.9,0,0,1-7.8-7.9V195.7a7.8,7.8,0,0,1,7.8-7.9h59.1a11.2,11.2,0,0,0,11.2-11.2V162.2A11.2,11.2,0,0,0,370.1,151H311a7.8,7.8,0,0,1-7.8-7.9V115.4A7.8,7.8,0,0,1,311,107.6Z"/><path class="cls-3" d="M607,260.2,539.9,78.5a14.2,14.2,0,0,0-13.4-9.3H499.8a14.4,14.4,0,0,0-13.5,9.4L419.7,260.2a11.3,11.3,0,0,0,10.6,15.1H459a11.2,11.2,0,0,0,10.7-7.9l39.6-128.1a4,4,0,0,1,7.7,0l39.8,128.1a11.3,11.3,0,0,0,10.8,7.9h28.9A11.2,11.2,0,0,0,607,260.2Z"/><path class="cls-4" d="M791.7,116.5a86.8,86.8,0,0,0-34.1-34.9q-21.7-12.4-49.1-12.4H660.7a18.5,18.5,0,0,0-18.6,18.5V256.8a18.5,18.5,0,0,0,18.6,18.5h49.2c17.9-.1,34-4.4,48.5-12.8a88.2,88.2,0,0,0,33.7-35.1q12-22.5,12-50.8v-9.4C804,148.5,799.8,131.6,791.7,116.5Zm-38.3,60.1c0,20-3.8,35.1-11.5,45.3s-18.6,15.2-32.8,15.2h-9a8.3,8.3,0,0,1-8.3-8.3V115.9a8.3,8.3,0,0,1,8.3-8.3h8.4c14.7,0,25.8,5,33.4,15.1s11.5,25.1,11.5,45Z"/><path class="cls-5" d="M1005.1,69.2h-27a11.2,11.2,0,0,0-11.2,11.2v63.2a7.4,7.4,0,0,1-7.4,7.4H901.1a7.4,7.4,0,0,1-7.4-7.4V80.4a11.2,11.2,0,0,0-11.2-11.2H855.3A11.3,11.3,0,0,0,844,80.4V264.1a11.3,11.3,0,0,0,11.3,11.2h27.2a11.2,11.2,0,0,0,11.2-11.2V196.6a7.4,7.4,0,0,1,7.4-7.4h58.4a7.4,7.4,0,0,1,7.4,7.4v67.5a11.2,11.2,0,0,0,11.2,11.2h27a11.2,11.2,0,0,0,11.2-11.2V80.4A11.2,11.2,0,0,0,1005.1,69.2Z"/><path class="cls-6" d="M1119.8,107.6h73.4a11.4,11.4,0,0,0,11.3-11.3V80.4a11.3,11.3,0,0,0-11.3-11.2H1080.7a18.5,18.5,0,0,0-18.5,18.5V256.8a18.5,18.5,0,0,0,18.5,18.5h112.2a11.2,11.2,0,0,0,11.3-11.2V248.3a11.2,11.2,0,0,0-11.3-11.2h-73.1a7.9,7.9,0,0,1-7.9-7.9V195.7a7.9,7.9,0,0,1,7.9-7.9h59a11.2,11.2,0,0,0,11.2-11.2V162.2a11.2,11.2,0,0,0-11.2-11.2h-59a7.9,7.9,0,0,1-7.9-7.9V115.4A7.8,7.8,0,0,1,1119.8,107.6Z"/><path class="cls-7" d="M1399.8,264.8l-37.7-74.9c12.3-5.8,21.4-13.4,27.2-22.9s8.7-21.3,8.7-35.6q0-29.7-20.6-45.9T1320,69.2h-62.5a18.5,18.5,0,0,0-18.6,18.5V264.1a11.3,11.3,0,0,0,11.3,11.2h27.2a11.2,11.2,0,0,0,11.2-11.2V207.3a4.9,4.9,0,0,1,4.9-4.9h15.3a10.8,10.8,0,0,1,9.7,6l30.3,60.7a11.2,11.2,0,0,0,10,6.2h34.5A7.3,7.3,0,0,0,1399.8,264.8Zm-58.5-108.1q-7,7.5-21.3,7.5h-26.5a4.9,4.9,0,0,1-4.9-4.9v-47a4.9,4.9,0,0,1,4.9-4.9H1320c9.4,0,16.5,2.5,21.3,7.6s7.2,12,7.2,20.9S1346.1,151.8,1341.3,156.7Z"/><path class="cls-8" d="M1565.1,167.2c-9.1-5.3-20.9-10.3-35.1-14.9s-24.2-9-29.9-13.3-8.5-9-8.5-14.3,2.6-11,7.8-14.9,12.1-5.9,21-5.9,15.7,2.3,20.9,6.9a22,22,0,0,1,6.7,11.4,11,11,0,0,0,10.8,8.2h27.3a11.2,11.2,0,0,0,11-13.5,56.1,56.1,0,0,0-8.4-20c-6.5-9.8-15.6-17.3-27.3-22.6s-25.1-7.9-39.9-7.9-28.9,2.4-41,7.2-21.6,11.7-28.3,20.5a48.7,48.7,0,0,0-9.9,30.2q0,34.3,40,54a248.1,248.1,0,0,0,31.7,12.6c13,4.4,22,8.6,27.1,12.6s7.7,9.7,7.7,17-2.4,11.4-7.1,14.9-11.3,5.4-19.5,5.4c-12.8,0-22.1-2.7-27.8-7.9q-6-5.6-7.8-15.3a11.4,11.4,0,0,0-11.4-9.1h-26.9a11.3,11.3,0,0,0-11.1,13.4,62.9,62.9,0,0,0,9.1,22.6q10.2,15.6,30.6,24.6t45.3,9c23.7,0,42.4-5.1,55.9-15.4s20.4-24.5,20.4-42.5Q1598.5,186.5,1565.1,167.2Z"/><path class="cls-9" d="M230.4,355.2a70,70,0,0,0-16-23.6,75.6,75.6,0,0,0-24.3-16,78.1,78.1,0,0,0-30.9-5.9,78.9,78.9,0,0,0-31,5.9,74,74,0,0,0-40.5,40,72.4,72.4,0,0,0-5.8,29.1v.4a74.9,74.9,0,0,0,5.7,29.2,72.2,72.2,0,0,0,15.9,23.6,76.9,76.9,0,0,0,24.4,15.9,78.1,78.1,0,0,0,30.9,5.9,78.9,78.9,0,0,0,31-5.9,74.2,74.2,0,0,0,46.3-69.1v-.4A74,74,0,0,0,230.4,355.2Zm-27.7,29.9a47.8,47.8,0,0,1-3.2,17.5,45.7,45.7,0,0,1-8.9,14.5,41.5,41.5,0,0,1-13.8,9.7,44.2,44.2,0,0,1-17.6,3.5,42.4,42.4,0,0,1-17.7-3.6,42,42,0,0,1-13.9-9.9,42.7,42.7,0,0,1-9.2-14.5,49,49,0,0,1-3.1-17.6v-.4a48.5,48.5,0,0,1,3.1-17.5,46.2,46.2,0,0,1,9-14.4,39.9,39.9,0,0,1,13.7-9.8,44,44,0,0,1,17.7-3.5,43,43,0,0,1,17.6,3.6,45,45,0,0,1,14,9.9,43.5,43.5,0,0,1,9.1,14.5,49.1,49.1,0,0,1,3.2,17.6Z"/><path class="cls-10" d="M424.1,316.7v78.4a2.2,2.2,0,0,1-3.9,1.3l-61.5-80.8a8.6,8.6,0,0,0-6.9-3.4H333a6.3,6.3,0,0,0-6.3,6.3V452.8a4.5,4.5,0,0,0,4.5,4.5h22.5a4.5,4.5,0,0,0,4.5-4.5V371.5a2.2,2.2,0,0,1,3.9-1.3l63.8,83.7a8.6,8.6,0,0,0,6.8,3.4h16.6a6.3,6.3,0,0,0,6.3-6.3V316.7a4.5,4.5,0,0,0-4.5-4.5H428.6A4.5,4.5,0,0,0,424.1,316.7Z"/><path class="cls-11" d="M1567,316.7v78.4a2.2,2.2,0,0,1-3.9,1.3l-61.5-80.8a8.5,8.5,0,0,0-6.9-3.4h-18.8a6.3,6.3,0,0,0-6.3,6.3V452.8a4.5,4.5,0,0,0,4.5,4.5h22.5a4.5,4.5,0,0,0,4.5-4.5V371.5a2.2,2.2,0,0,1,3.9-1.3l63.8,83.7a8.6,8.6,0,0,0,6.8,3.4h16.6a6.3,6.3,0,0,0,6.3-6.3V316.7a4.5,4.5,0,0,0-4.5-4.5h-22.5A4.5,4.5,0,0,0,1567,316.7Z"/><path class="cls-12" d="M787.4,416.6a4.9,4.9,0,0,0-6.6-.3,75.1,75.1,0,0,1-13.8,9.4c-5.7,3.1-12.7,4.6-21,4.6a40.3,40.3,0,0,1-17.1-3.6,39.6,39.6,0,0,1-13.3-9.9,46.5,46.5,0,0,1-8.6-14.5,49,49,0,0,1-3.1-17.6v-.4a48.5,48.5,0,0,1,3.1-17.5,45.5,45.5,0,0,1,8.7-14.4,39.7,39.7,0,0,1,13.4-9.8,41.2,41.2,0,0,1,16.9-3.5,44.3,44.3,0,0,1,19.8,4.4,68,68,0,0,1,13.7,8.9,4.9,4.9,0,0,0,6.8-.6l14-16.2a4.9,4.9,0,0,0-.4-6.9,84.5,84.5,0,0,0-7.3-5.8,66.8,66.8,0,0,0-12.6-7,88.9,88.9,0,0,0-15.3-4.6,95.9,95.9,0,0,0-18.5-1.6,76.7,76.7,0,0,0-30.7,5.9,69.8,69.8,0,0,0-23.8,16.2,76.7,76.7,0,0,0-15.6,23.8,75.8,75.8,0,0,0-5.6,29.1v.4a77.6,77.6,0,0,0,5.6,29.3,74,74,0,0,0,15.6,23.7A73.3,73.3,0,0,0,715.3,454a76.3,76.3,0,0,0,29.7,5.7,91.9,91.9,0,0,0,19-1.7,68.9,68.9,0,0,0,15.7-5.2,70.4,70.4,0,0,0,13.1-8.2,90.7,90.7,0,0,0,8.1-7.2,4.8,4.8,0,0,0,.1-7Z"/><path class="cls-13" d="M982.9,316.7v50.1a2.8,2.8,0,0,1-2.8,2.8H926.8a2.9,2.9,0,0,1-2.8-2.8V316.7a4.5,4.5,0,0,0-4.5-4.5H896.6a4.5,4.5,0,0,0-4.5,4.5V452.8a4.5,4.5,0,0,0,4.5,4.5h22.9a4.5,4.5,0,0,0,4.5-4.5v-51a2.8,2.8,0,0,1,2.8-2.8h53.3a2.7,2.7,0,0,1,2.8,2.8v51a4.5,4.5,0,0,0,4.5,4.5h22.9a4.5,4.5,0,0,0,4.5-4.5V316.7a4.5,4.5,0,0,0-4.5-4.5H987.4A4.5,4.5,0,0,0,982.9,316.7Z"/><path class="cls-14" d="M1184.1,311.1h-15.6a10.4,10.4,0,0,0-9.6,6.3l-57.2,134.4a4,4,0,0,0,3.6,5.5h21.3a7.9,7.9,0,0,0,7.3-5l11.3-27.6,11.4-28.2,17.1-41.7a2.3,2.3,0,0,1,4.3,0l17.2,41.7,11.3,28.2,11.3,27.6a7.9,7.9,0,0,0,7.3,5h22.1a4,4,0,0,0,3.6-5.5l-57.1-134.4A10.4,10.4,0,0,0,1184.1,311.1Z"/><path class="cls-15" d="M1339.2,316.7V452.8a4.5,4.5,0,0,0,4.5,4.5h22.9a4.5,4.5,0,0,0,4.5-4.5V316.7a4.5,4.5,0,0,0-4.5-4.5h-22.9A4.5,4.5,0,0,0,1339.2,316.7Z"/><path class="cls-16" d="M94.2,517.7a10.1,10.1,0,0,0,3.1,3.9,22.9,22.9,0,0,0,6.3,3.3,76.5,76.5,0,0,0,10.2,2.7c8.5,1.9,14.7,4.5,18.7,7.8s6,7.9,6,13.8a19.6,19.6,0,0,1-2,8.8,18.5,18.5,0,0,1-5.2,6.8,23.9,23.9,0,0,1-8.2,4.4,33.7,33.7,0,0,1-10.3,1.5,46.3,46.3,0,0,1-16.6-2.9,47.3,47.3,0,0,1-14.3-9.1l5.3-6.3a43.8,43.8,0,0,0,12,8.1,35.2,35.2,0,0,0,13.9,2.6c5.1,0,9.2-1.2,12.2-3.5a11.4,11.4,0,0,0,4.6-9.5,14.2,14.2,0,0,0-.8-4.8,9.2,9.2,0,0,0-3.1-3.8,18.6,18.6,0,0,0-6-3.1,67.5,67.5,0,0,0-9.8-2.8,77.9,77.9,0,0,1-11.3-3.2A26.8,26.8,0,0,1,91,528a17,17,0,0,1-4.7-6.1,20.4,20.4,0,0,1-1.5-8.2,19,19,0,0,1,1.8-8.3,19.5,19.5,0,0,1,5.2-6.6,25,25,0,0,1,7.9-4.3,28.6,28.6,0,0,1,9.9-1.6,43,43,0,0,1,14.6,2.3,43.2,43.2,0,0,1,12,6.9l-5,6.6a35.7,35.7,0,0,0-10.6-6.3,32.5,32.5,0,0,0-11.2-1.9,22.4,22.4,0,0,0-6.6.9,20.3,20.3,0,0,0-5.1,2.6,11.4,11.4,0,0,0-4.4,8.8A13,13,0,0,0,94.2,517.7Z"/><path class="cls-17" d="M164.4,535.6v34h-8.5V494h8.5v33.6H208V494h8.6v75.6H208v-34Z"/><path class="cls-18" d="M308.4,569.6h-9.2l-8.9-20H249.2l-9,20h-8.7l34.4-76.1h8Zm-38.6-66.1-17.3,38.6H287Z"/><path class="cls-19" d="M377.5,528.9a23.1,23.1,0,0,1-6.4,7.8,29.1,29.1,0,0,1-9.5,4.7,42.4,42.4,0,0,1-11.4,1.5H331.8v26.7h-8.5V494h28.3a38.7,38.7,0,0,1,11.6,1.7,27.5,27.5,0,0,1,9,4.7,22.7,22.7,0,0,1,5.7,7.6,24.9,24.9,0,0,1,2,10.1A23.2,23.2,0,0,1,377.5,528.9ZM365.8,506c-3.8-2.7-8.7-4.1-14.8-4.1H331.8v33.2h18.8a28.7,28.7,0,0,0,8.5-1.1,22.9,22.9,0,0,0,6.6-3.4,16.4,16.4,0,0,0,4.2-5.3,15.8,15.8,0,0,0,1.4-6.9C371.3,512.9,369.5,508.8,365.8,506Z"/><path class="cls-20" d="M404.7,494v75.6h-8.5V494Z"/><path class="cls-21" d="M482.5,494h8.3v75.6H484l-48.8-62v62h-8.3V494h8l47.6,60.6Z"/><path class="cls-22" d="M564.6,567.5a41.7,41.7,0,0,1-17.3,3.4,40.4,40.4,0,0,1-16-3,34.8,34.8,0,0,1-12.1-8.3,36.4,36.4,0,0,1-7.7-12.5,42.5,42.5,0,0,1,.1-30.1,38,38,0,0,1,7.7-12.5,36.1,36.1,0,0,1,12-8.6,37,37,0,0,1,15.5-3.2,59.4,59.4,0,0,1,8.7.6,41.1,41.1,0,0,1,7.3,2,34.8,34.8,0,0,1,6.4,3.2,56.7,56.7,0,0,1,5.8,4.2l-5.6,6.5a38.7,38.7,0,0,0-4.5-3.5,41.1,41.1,0,0,0-5.1-2.7,48.7,48.7,0,0,0-6.1-1.8,40.7,40.7,0,0,0-7.3-.6,26.1,26.1,0,0,0-11.5,2.5,27.6,27.6,0,0,0-9.1,6.7,30.7,30.7,0,0,0-5.9,9.9,32.3,32.3,0,0,0-2.2,12,37.2,37.2,0,0,0,2.1,12.7,30.7,30.7,0,0,0,6,10,27.5,27.5,0,0,0,9.4,6.6,32.6,32.6,0,0,0,12.4,2.3,33,33,0,0,0,12.2-2.2,35,35,0,0,0,9.6-5.4V536.9h-23v-7.6h31.3v30.1A52.1,52.1,0,0,1,564.6,567.5Z"/><path class="cls-23" d="M675.1,493.8h7L702.8,557l21.6-63h9l-27,76.1h-7.2l-20.8-61.3-20.8,61.3h-7.1l-27-76.1h9.2l21.6,63Z"/><path class="cls-24" d="M803.5,501.8H757.4v25.8h41.3v7.8H757.4v26.4h46.7v7.8H748.9V494h54.6Z"/><path class="cls-25" d="M863.5,495.3a24.1,24.1,0,0,1,7.7,3.8,15.2,15.2,0,0,1,5,6,16.6,16.6,0,0,1,1.7,7.8,19.1,19.1,0,0,1-1,6.6,20,20,0,0,1-2.7,5,21.9,21.9,0,0,1-3.9,3.6,26.1,26.1,0,0,1-4.3,2.4,43.5,43.5,0,0,1,6.3,2.5,20,20,0,0,1,5.1,3.8,16.4,16.4,0,0,1,3.5,5.2,18.5,18.5,0,0,1,1.2,6.9,19.2,19.2,0,0,1-1.9,8.7,18.4,18.4,0,0,1-5.5,6.6,27.9,27.9,0,0,1-8.7,4,43.5,43.5,0,0,1-11.2,1.4H821.2V494h32.2A35.3,35.3,0,0,1,863.5,495.3Zm1.1,28.9q4.8-3.5,4.8-10.2a11,11,0,0,0-4.3-9.1c-2.9-2.2-7-3.3-12.4-3.3H829.8v26.1h22.3A21.2,21.2,0,0,0,864.6,524.2Zm4.1,34.3a11.8,11.8,0,0,0,4.9-10.1,11,11,0,0,0-5.1-9.7c-3.3-2.3-8.3-3.4-14.9-3.4H829.8V562h25.3C860.8,562,865.4,560.9,868.7,558.5Z"/><path class="cls-26" d="M897.9,501.6V494h48.2v6.3l-23.7,26.3a42.1,42.1,0,0,1,9.5,1.9,24.9,24.9,0,0,1,8,3.9,21.3,21.3,0,0,1,5.4,6.5,20,20,0,0,1,2,9.1,21.8,21.8,0,0,1-2,9.3,22.4,22.4,0,0,1-5.3,7.2,24.5,24.5,0,0,1-8,4.7,29.4,29.4,0,0,1-9.9,1.7,34.6,34.6,0,0,1-16.5-3.7,36.1,36.1,0,0,1-11.7-9.8l6.2-5.5a31.7,31.7,0,0,0,9.8,8.3,24.3,24.3,0,0,0,12.3,2.9,19.7,19.7,0,0,0,6.5-1,14.8,14.8,0,0,0,5.2-3,12.6,12.6,0,0,0,3.5-4.7,13.3,13.3,0,0,0,1.3-6.1,12.2,12.2,0,0,0-5.8-10.9c-4-2.5-9.1-3.8-15.3-3.8h-4.9l-1.7-5.1,23.9-26.9Z"/><path class="cls-27" d="M1026.3,569.6h-8.5V501.9H992.4V494h59.3v7.9h-25.4Z"/><path class="cls-28" d="M1133.6,546.7a39.2,39.2,0,0,1-7.9,12.4,36.9,36.9,0,0,1-12.2,8.6,41,41,0,0,1-31.5.1,37.3,37.3,0,0,1-12.1-8.5,39.2,39.2,0,0,1-7.9-12.4,41.6,41.6,0,0,1-2.7-15,40.3,40.3,0,0,1,2.8-15,39.2,39.2,0,0,1,7.9-12.4,36.9,36.9,0,0,1,12.2-8.6,41,41,0,0,1,31.5-.1,37.3,37.3,0,0,1,12.1,8.5,39.2,39.2,0,0,1,7.9,12.4,41.6,41.6,0,0,1,2.7,15A40.3,40.3,0,0,1,1133.6,546.7Zm-8.3-27a28.2,28.2,0,0,0-6.2-9.9,28.8,28.8,0,0,0-9.4-6.7,28,28,0,0,0-12-2.5,29.1,29.1,0,0,0-11.9,2.4,27,27,0,0,0-9.3,6.7,30,30,0,0,0-6.1,9.8,33.5,33.5,0,0,0,0,24.4,28.2,28.2,0,0,0,6.2,9.9,28.8,28.8,0,0,0,9.4,6.7,28,28,0,0,0,12,2.5,29.1,29.1,0,0,0,11.9-2.4,27,27,0,0,0,9.3-6.7,30,30,0,0,0,6.1-9.8,33.5,33.5,0,0,0,0-24.4Z"/><path class="cls-29" d="M1206.9,567.5a42.1,42.1,0,0,1-17.3,3.4,40.9,40.9,0,0,1-16.1-3,36.8,36.8,0,0,1-12.1-8.3,38,38,0,0,1-7.7-12.5,44.5,44.5,0,0,1-2.6-15.2,39.8,39.8,0,0,1,2.8-14.9,38,38,0,0,1,7.7-12.5,36.7,36.7,0,0,1,11.9-8.6,37.4,37.4,0,0,1,15.5-3.2,57.5,57.5,0,0,1,8.7.6,42.2,42.2,0,0,1,7.4,2,37.3,37.3,0,0,1,6.3,3.2,56.7,56.7,0,0,1,5.8,4.2l-5.5,6.5a49.4,49.4,0,0,0-4.5-3.5,36.3,36.3,0,0,0-5.2-2.7,42.7,42.7,0,0,0-6-1.8,40.7,40.7,0,0,0-7.3-.6,26.6,26.6,0,0,0-11.6,2.5,27.2,27.2,0,0,0-9,6.7,30.9,30.9,0,0,0-6,9.9,34.4,34.4,0,0,0-2.1,12,37.2,37.2,0,0,0,2.1,12.7,30.7,30.7,0,0,0,6,10,27.5,27.5,0,0,0,9.4,6.6,32.2,32.2,0,0,0,12.4,2.3,33,33,0,0,0,12.2-2.2,36.5,36.5,0,0,0,9.6-5.4V536.9h-23v-7.6h31.2v30.1A51.5,51.5,0,0,1,1206.9,567.5Z"/><path class="cls-30" d="M1293.8,501.8h-46.1v25.8h41.2v7.8h-41.2v26.4h46.6v7.8h-55.2V494h54.7Z"/><path class="cls-31" d="M1340,569.6h-8.5V501.9h-25.4V494h59.3v7.9H1340Z"/><path class="cls-32" d="M1390,535.6v34h-8.5V494h8.5v33.6h43.7V494h8.5v75.6h-8.5v-34Z"/><path class="cls-33" d="M1518.2,501.8h-46.1v25.8h41.3v7.8h-41.3v26.4h46.7v7.8h-55.2V494h54.6Z"/><path class="cls-34" d="M1588,569.6l-21.9-29.4h-21.6v29.4H1536V494h32.5a36.7,36.7,0,0,1,11.3,1.6,24.8,24.8,0,0,1,8.5,4.6,21.3,21.3,0,0,1,5.6,7.1,23.4,23.4,0,0,1,1.9,9.3,22.6,22.6,0,0,1-1.5,8.5,17.6,17.6,0,0,1-4.3,6.4,21.8,21.8,0,0,1-6.5,4.6,28.1,28.1,0,0,1-8.2,2.6l23.2,30.9Zm-5.8-63.8c-3.4-2.6-8.2-3.9-14.3-3.9h-23.4v30.8h23.3a27.7,27.7,0,0,0,7.8-1.1,18.5,18.5,0,0,0,6.1-3.1,13.8,13.8,0,0,0,4.1-4.9,14.7,14.7,0,0,0,1.5-6.7A13.4,13.4,0,0,0,1582.2,505.8Z"/></g></svg>