<svg xmlns="http://www.w3.org/2000/svg" xmlns:xlink="http://www.w3.org/1999/xlink" viewBox="0 0 1000 1000"><defs><style>.cls-1{fill:url(#linear-gradient);}.cls-2{fill:url(#linear-gradient-2);}.cls-3{fill:url(#linear-gradient-3);}.cls-4{fill:url(#linear-gradient-4);}.cls-5{opacity:0.15;}.cls-6{fill:url(#linear-gradient-5);}.cls-7{fill:url(#linear-gradient-6);}.cls-8{fill:url(#linear-gradient-7);}.cls-9{fill:url(#linear-gradient-8);}.cls-10{fill:url(#linear-gradient-9);}.cls-11{fill:url(#linear-gradient-10);}.cls-12{fill:url(#linear-gradient-11);}.cls-13{fill:url(#linear-gradient-12);}.cls-14{fill:url(#linear-gradient-13);}.cls-15{fill:url(#linear-gradient-14);}.cls-16{fill:url(#linear-gradient-15);}.cls-17{fill:url(#linear-gradient-16);}.cls-18{fill:url(#linear-gradient-17);}.cls-19{fill:url(#linear-gradient-18);}.cls-20{fill:url(#linear-gradient-19);}.cls-21{fill:url(#linear-gradient-20);}.cls-22{fill:url(#linear-gradient-21);}.cls-23{fill:url(#linear-gradient-22);}.cls-24{fill:url(#linear-gradient-23);}.cls-25{fill:url(#linear-gradient-24);}.cls-26{fill:url(#linear-gradient-25);}.cls-27{fill:url(#linear-gradient-26);}.cls-28{fill:url(#linear-gradient-27);}.cls-29{fill:url(#linear-gradient-28);}.cls-30{fill:url(#linear-gradient-29);}.cls-31{fill:url(#linear-gradient-30);}.cls-32{fill:url(#linear-gradient-31);}.cls-33{fill:url(#linear-gradient-32);}.cls-34{fill:url(#linear-gradient-33);}.cls-35{fill:url(#linear-gradient-34);}.cls-36{fill:url(#linear-gradient-35);}.cls-37{fill:url(#linear-gradient-36);}.cls-38{fill:url(#linear-gradient-37);}.cls-39{fill:url(#linear-gradient-38);}.cls-40{fill:url(#linear-gradient-39);}</style><linearGradient id="linear-gradient" x1="592.51" y1="410.39" x2="859.99" y2="410.39" gradientUnits="userSpaceOnUse"><stop offset="0" stop-color="#fff"/><stop offset="1" stop-color="#f7f7f7"/></linearGradient><linearGradient id="linear-gradient-2" x1="601.37" y1="240.79" x2="859.99" y2="240.79" xlink:href="#linear-gradient"/><linearGradient id="linear-gradient-3" x1="82.19" y1="240.27" x2="315" y2="473.08" xlink:href="#linear-gradient"/><linearGradient id="linear-gradient-4" x1="325.7" y1="225.16" x2="526.6" y2="426.06" xlink:href="#linear-gradient"/><linearGradient id="linear-gradient-5" x1="416.98" y1="325.6" x2="743.11" y2="325.6" xlink:href="#linear-gradient"/><linearGradient id="linear-gradient-6" x1="125.24" y1="541" x2="125.24" y2="816.76" xlink:href="#linear-gradient"/><linearGradient id="linear-gradient-7" x1="220.08" y1="541" x2="220.08" y2="816.76" xlink:href="#linear-gradient"/><linearGradient id="linear-gradient-8" x1="322.57" y1="541" x2="322.57" y2="816.76" xlink:href="#linear-gradient"/><linearGradient id="linear-gradient-9" x1="436.43" y1="541" x2="436.43" y2="816.76" xlink:href="#linear-gradient"/><linearGradient id="linear-gradient-10" x1="548.86" y1="541" x2="548.86" y2="816.76" xlink:href="#linear-gradient"/><linearGradient id="linear-gradient-11" x1="659.17" y1="541" x2="659.17" y2="816.76" xlink:href="#linear-gradient"/><linearGradient id="linear-gradient-12" x1="760.38" y1="541" x2="760.38" y2="816.76" xlink:href="#linear-gradient"/><linearGradient id="linear-gradient-13" x1="867.88" y1="541" x2="867.88" y2="816.76" xlink:href="#linear-gradient"/><linearGradient id="linear-gradient-14" x1="130.14" y1="541" x2="130.14" y2="816.76" xlink:href="#linear-gradient"/><linearGradient id="linear-gradient-15" x1="256.19" y1="541" x2="256.19" y2="816.76" xlink:href="#linear-gradient"/><linearGradient id="linear-gradient-16" x1="876.72" y1="541" x2="876.72" y2="816.76" xlink:href="#linear-gradient"/><linearGradient id="linear-gradient-17" x1="443.7" y1="541" x2="443.7" y2="816.76" xlink:href="#linear-gradient"/><linearGradient id="linear-gradient-18" x1="561.5" y1="541" x2="561.5" y2="816.76" xlink:href="#linear-gradient"/><linearGradient id="linear-gradient-19" x1="682.48" y1="541" x2="682.48" y2="816.76" xlink:href="#linear-gradient"/><linearGradient id="linear-gradient-20" x1="779.6" y1="541" x2="779.6" y2="816.76" xlink:href="#linear-gradient"/><linearGradient id="linear-gradient-21" x1="103.64" y1="541" x2="103.64" y2="816.76" xlink:href="#linear-gradient"/><linearGradient id="linear-gradient-22" x1="144.93" y1="541" x2="144.93" y2="816.76" xlink:href="#linear-gradient"/><linearGradient id="linear-gradient-23" x1="190.38" y1="541" x2="190.38" y2="816.76" xlink:href="#linear-gradient"/><linearGradient id="linear-gradient-24" x1="234.71" y1="541" x2="234.71" y2="816.76" xlink:href="#linear-gradient"/><linearGradient id="linear-gradient-25" x1="261.25" y1="541" x2="261.25" y2="816.76" xlink:href="#linear-gradient"/><linearGradient id="linear-gradient-26" x1="292.95" y1="541" x2="292.95" y2="816.76" xlink:href="#linear-gradient"/><linearGradient id="linear-gradient-27" x1="338.78" y1="541" x2="338.78" y2="816.76" xlink:href="#linear-gradient"/><linearGradient id="linear-gradient-28" x1="412.18" y1="541" x2="412.18" y2="816.76" xlink:href="#linear-gradient"/><linearGradient id="linear-gradient-29" x1="465.4" y1="541" x2="465.4" y2="816.76" xlink:href="#linear-gradient"/><linearGradient id="linear-gradient-30" x1="506.24" y1="541" x2="506.24" y2="816.76" xlink:href="#linear-gradient"/><linearGradient id="linear-gradient-31" x1="543.66" y1="541" x2="543.66" y2="816.76" xlink:href="#linear-gradient"/><linearGradient id="linear-gradient-32" x1="598.76" y1="541" x2="598.76" y2="816.76" xlink:href="#linear-gradient"/><linearGradient id="linear-gradient-33" x1="639.9" y1="541" x2="639.9" y2="816.76" xlink:href="#linear-gradient"/><linearGradient id="linear-gradient-34" x1="687.49" y1="541" x2="687.49" y2="816.76" xlink:href="#linear-gradient"/><linearGradient id="linear-gradient-35" x1="731.59" y1="541" x2="731.59" y2="816.76" xlink:href="#linear-gradient"/><linearGradient id="linear-gradient-36" x1="769.06" y1="541" x2="769.06" y2="816.76" xlink:href="#linear-gradient"/><linearGradient id="linear-gradient-37" x1="810.38" y1="541" x2="810.38" y2="816.76" xlink:href="#linear-gradient"/><linearGradient id="linear-gradient-38" x1="853.45" y1="541" x2="853.45" y2="816.76" xlink:href="#linear-gradient"/><linearGradient id="linear-gradient-39" x1="894.74" y1="541" x2="894.74" y2="816.76" xlink:href="#linear-gradient"/></defs><title>LOC_logo_text_tagline_AllCap_white</title><g id="Layer_1" data-name="Layer 1"><path class="cls-1" d="M832.5,353.1h0c21,0,34.2,22.6,24,41l-1.5,2.6a142.3,142.3,0,0,1-153.2,67.8A141.2,141.2,0,0,1,649,441a145.4,145.4,0,0,1-39.6-43.4,142.2,142.2,0,0,1-16.9-44.5h56.8a87,87,0,0,0,159,14.3A27.7,27.7,0,0,1,832.5,353.1Z"/><path class="cls-2" d="M601.9,272.8c-1.6-3.2,1-6.9,2.4-9.8a144.6,144.6,0,0,1,65.3-65.2,143.2,143.2,0,0,1,91.1-11.4c30.3,6.3,59,22.8,78.9,46.6,2.2,2.9,4.7,5.5,6.8,8.5s4.3,6,6.3,9.1,2.6,4.3,3.8,6.5c10.2,18.4-3,41-24,41h0a27.8,27.8,0,0,1-24.3-14.6,88.4,88.4,0,0,0-28.5-30.8,87,87,0,0,0-103.9,6.2,91.6,91.6,0,0,0-8.4,8.1c-2.6,2.8-4.8,5.7-8.4,7.3s-5.9,1.4-9,1.4H613.3c-2.2,0-4.4.1-6.6,0A5.3,5.3,0,0,1,601.9,272.8Z"/><path class="cls-3" d="M291.9,440.2a26.9,26.9,0,0,1-8,19.4,27.4,27.4,0,0,1-19.5,8.1H167.5A27.5,27.5,0,0,1,140,440.2V210.9a27.5,27.5,0,0,1,55,0V396.2a16.5,16.5,0,0,0,16.5,16.5h52.9A27.5,27.5,0,0,1,291.9,440.2Z"/><path class="cls-4" d="M565.6,353.1a142,142,0,1,1,0-55H508.9a84.3,84.3,0,0,0-11.3-22.4,77.9,77.9,0,0,0-9.8-11.7,87.2,87.2,0,1,0,0,123.2,85.7,85.7,0,0,0,21.1-34.1Z"/><path class="cls-5" d="M508.9,298.1h0a84.3,84.3,0,0,0-11.3-22.4l68,22.4Z"/><path class="cls-5" d="M649.2,353.1h0a84.3,84.3,0,0,0,11.3,22.4l-68-22.4Z"/><path class="cls-6" d="M743.1,325.6a27.5,27.5,0,0,1-27.5,27.5H442.5a27.5,27.5,0,0,1,0-55H715.6A27.5,27.5,0,0,1,743.1,325.6Z"/><path class="cls-7" d="M156.1,630.2H120.8a5.5,5.5,0,0,1-5.5-5.5V550.2a6.2,6.2,0,0,0-6.2-6.1H94.4a6.1,6.1,0,0,0-6.1,6.1V646a10,10,0,0,0,10,10h57.8a6.1,6.1,0,0,0,6.1-6.1V636.3A6.1,6.1,0,0,0,156.1,630.2Z"/><path class="cls-8" d="M212.7,565h39.9a6.1,6.1,0,0,0,6.1-6.1v-8.7a6.1,6.1,0,0,0-6.1-6.1H191.5a10.1,10.1,0,0,0-10,10.1V646a10,10,0,0,0,10,10h60.9a6.1,6.1,0,0,0,6.1-6.1v-8.5a6.1,6.1,0,0,0-6.1-6.1H212.7a4.3,4.3,0,0,1-4.3-4.3V612.8a4.4,4.4,0,0,1,4.3-4.3h32.1a6.1,6.1,0,0,0,6.1-6.1v-7.7a6.1,6.1,0,0,0-6.1-6.1H212.7a4.4,4.4,0,0,1-4.3-4.3v-15A4.3,4.3,0,0,1,212.7,565Z"/><path class="cls-9" d="M373.4,647.8,337,549.2a7.8,7.8,0,0,0-7.3-5.1H315.2a7.8,7.8,0,0,0-7.3,5.1l-36.2,98.6a6.1,6.1,0,0,0,5.7,8.2H293a6.1,6.1,0,0,0,5.9-4.3l21.5-69.5a2.2,2.2,0,0,1,4.1,0l21.6,69.6A6.2,6.2,0,0,0,352,656h15.7A6.1,6.1,0,0,0,373.4,647.8Z"/><path class="cls-10" d="M473.7,569.8a48,48,0,0,0-18.5-18.9,53,53,0,0,0-26.7-6.8h-26a10.1,10.1,0,0,0-10,10.1V646a10,10,0,0,0,10,10h26.8a51.1,51.1,0,0,0,26.3-6.9A47.4,47.4,0,0,0,473.9,630a57.9,57.9,0,0,0,6.5-27.5v-5.2A58.5,58.5,0,0,0,473.7,569.8Zm-20.8,32.7c0,10.8-2.1,19-6.2,24.5s-10.1,8.3-17.9,8.3H424a4.5,4.5,0,0,1-4.5-4.5V569.5A4.5,4.5,0,0,1,424,565h4.5c8,0,14,2.7,18.2,8.2s6.2,13.6,6.2,24.4Z"/><path class="cls-11" d="M589.5,544.1H574.9a6.1,6.1,0,0,0-6.1,6.1v34.3a4,4,0,0,1-4,4.1H533.1a4,4,0,0,1-4-4.1V550.2a6.2,6.2,0,0,0-6.1-6.1H508.2a6.1,6.1,0,0,0-6.1,6.1v99.7a6.1,6.1,0,0,0,6.1,6.1H523a6.1,6.1,0,0,0,6.1-6.1V613.3a4,4,0,0,1,4-4h31.7a4,4,0,0,1,4,4v36.6a6.1,6.1,0,0,0,6.1,6.1h14.6a6.1,6.1,0,0,0,6.1-6.1V550.2A6.1,6.1,0,0,0,589.5,544.1Z"/><path class="cls-12" d="M651.8,565h39.9a6.1,6.1,0,0,0,6.1-6.1v-8.7a6.1,6.1,0,0,0-6.1-6.1H630.6a10.1,10.1,0,0,0-10,10.1V646a10,10,0,0,0,10,10h60.9a6.1,6.1,0,0,0,6.1-6.1v-8.5a6.1,6.1,0,0,0-6.1-6.1H651.8a4.3,4.3,0,0,1-4.3-4.3V612.8a4.3,4.3,0,0,1,4.3-4.3h32.1a6,6,0,0,0,6-6.1v-7.7a6,6,0,0,0-6-6.1H651.8a4.3,4.3,0,0,1-4.3-4.3v-15A4.3,4.3,0,0,1,651.8,565Z"/><path class="cls-13" d="M803.8,650.3l-20.4-40.6c6.7-3.2,11.6-7.3,14.7-12.4s4.8-11.6,4.8-19.4c0-10.7-3.8-19-11.2-24.9s-17.9-8.9-31.2-8.9H726.6a10.1,10.1,0,0,0-10.1,10.1v95.7a6.1,6.1,0,0,0,6.1,6.1h14.8a6.1,6.1,0,0,0,6.1-6.1V619.1a2.6,2.6,0,0,1,2.6-2.6h8.3a5.8,5.8,0,0,1,5.3,3.2l16.4,33a6.3,6.3,0,0,0,5.5,3.3h18.7A3.9,3.9,0,0,0,803.8,650.3Zm-31.7-58.6c-2.6,2.7-6.4,4-11.6,4H746.1a2.6,2.6,0,0,1-2.6-2.6V567.5a2.6,2.6,0,0,1,2.6-2.6h14.4c5.1,0,8.9,1.4,11.6,4.1s3.9,6.5,3.9,11.4S774.7,589,772.1,591.7Z"/><path class="cls-14" d="M893.6,597.3a104.6,104.6,0,0,0-19.1-8q-11.6-3.7-16.2-7.2c-3.1-2.4-4.6-5-4.6-7.8a9.7,9.7,0,0,1,4.2-8.1c2.8-2.2,6.6-3.2,11.4-3.2s8.5,1.2,11.3,3.7a11.7,11.7,0,0,1,3.7,6.2,5.9,5.9,0,0,0,5.9,4.4H905a6.1,6.1,0,0,0,6-7.2,28.5,28.5,0,0,0-4.6-10.9,34.6,34.6,0,0,0-14.8-12.3,51.9,51.9,0,0,0-21.7-4.3,58.7,58.7,0,0,0-22.3,4,34.8,34.8,0,0,0-15.3,11,26.5,26.5,0,0,0-5.4,16.4c0,12.5,7.2,22.3,21.7,29.4a136.9,136.9,0,0,0,17.2,6.8c7.1,2.4,12,4.7,14.8,6.9a11.2,11.2,0,0,1,4.2,9.2,9.4,9.4,0,0,1-3.9,8.1c-2.6,1.9-6.1,2.9-10.6,2.9-7,0-12-1.4-15.1-4.3a13.8,13.8,0,0,1-4.2-8.3,6.2,6.2,0,0,0-6.2-4.9H830.2a6.1,6.1,0,0,0-6.1,7.2,33.3,33.3,0,0,0,5,12.3c3.7,5.7,9.2,10.1,16.6,13.4a59.1,59.1,0,0,0,24.6,4.9c12.9,0,23-2.8,30.4-8.4s11-13.3,11-23.1C911.7,613.9,905.7,604.3,893.6,597.3Z"/><path class="cls-15" d="M168.9,699.4a36.4,36.4,0,0,0-8.7-12.8,39.9,39.9,0,0,0-13.2-8.7,43.7,43.7,0,0,0-16.8-3.2,44.5,44.5,0,0,0-16.8,3.2,41.7,41.7,0,0,0-13.3,8.8,40.8,40.8,0,0,0-8.7,12.9,40.3,40.3,0,0,0-3.1,15.9v.2a39.8,39.8,0,0,0,3.1,15.8,37.5,37.5,0,0,0,8.6,12.8,42.4,42.4,0,0,0,30,11.9,44.6,44.6,0,0,0,16.9-3.2,41.8,41.8,0,0,0,13.2-8.8,39.2,39.2,0,0,0,8.7-12.9,38.2,38.2,0,0,0,3.2-15.8v-.3A39.8,39.8,0,0,0,168.9,699.4Zm-15,16.3a25.1,25.1,0,0,1-1.8,9.5,23.2,23.2,0,0,1-4.8,7.8,22.2,22.2,0,0,1-7.5,5.3,24.6,24.6,0,0,1-19.2-.1,23.7,23.7,0,0,1-7.5-5.3,25.9,25.9,0,0,1-5-7.9,27.5,27.5,0,0,1-1.7-9.5v-.3a27.1,27.1,0,0,1,1.7-9.5,24,24,0,0,1,4.9-7.8,20.9,20.9,0,0,1,7.4-5.3,23.2,23.2,0,0,1,9.6-1.9,21.7,21.7,0,0,1,9.6,2,24.2,24.2,0,0,1,7.6,5.3,23.9,23.9,0,0,1,4.9,7.9,25.6,25.6,0,0,1,1.8,9.6Z"/><path class="cls-16" d="M274.1,678.5v42.6a1.2,1.2,0,0,1-2.1.7l-33.4-43.9a4.6,4.6,0,0,0-3.8-1.8H224.6a3.4,3.4,0,0,0-3.4,3.4v72.9a2.4,2.4,0,0,0,2.4,2.4h12.3a2.4,2.4,0,0,0,2.4-2.4V708.3a1.2,1.2,0,0,1,2.1-.8L275,753a4.6,4.6,0,0,0,3.8,1.8h9a3.4,3.4,0,0,0,3.4-3.4V678.5a2.4,2.4,0,0,0-2.5-2.4H276.5A2.4,2.4,0,0,0,274.1,678.5Z"/><path class="cls-17" d="M894.6,678.5v42.6a1.2,1.2,0,0,1-2.1.7l-33.4-43.9a4.6,4.6,0,0,0-3.7-1.8H845.1a3.4,3.4,0,0,0-3.4,3.4v72.9a2.4,2.4,0,0,0,2.5,2.4h12.2a2.4,2.4,0,0,0,2.4-2.4V708.3a1.2,1.2,0,0,1,2.2-.8L895.6,753a4.5,4.5,0,0,0,3.7,1.8h9a3.4,3.4,0,0,0,3.4-3.4V678.5a2.4,2.4,0,0,0-2.4-2.4H897.1A2.4,2.4,0,0,0,894.6,678.5Z"/><path class="cls-18" d="M471.3,732.8a2.6,2.6,0,0,0-3.6-.2,37.7,37.7,0,0,1-7.4,5.1,23.8,23.8,0,0,1-11.5,2.5,21.7,21.7,0,0,1-9.2-2,22.4,22.4,0,0,1-7.2-5.3,25.1,25.1,0,0,1-4.7-7.9,27.5,27.5,0,0,1-1.7-9.5v-.3a27.1,27.1,0,0,1,1.7-9.5,23.6,23.6,0,0,1,4.7-7.8,21.9,21.9,0,0,1,16.4-7.2,23.8,23.8,0,0,1,10.8,2.4,35.8,35.8,0,0,1,7.4,4.8,2.7,2.7,0,0,0,3.7-.3l7.6-8.8a2.7,2.7,0,0,0-.2-3.8c-1.2-1.1-2.6-2.1-3.9-3.1a32.9,32.9,0,0,0-6.9-3.8,38.5,38.5,0,0,0-8.3-2.5,51.6,51.6,0,0,0-10-.9,42.9,42.9,0,0,0-16.7,3.2,38.9,38.9,0,0,0-12.9,8.8,40.2,40.2,0,0,0-8.5,12.9,42,42,0,0,0-3,15.9v.2a41.5,41.5,0,0,0,3,15.8A39.2,39.2,0,0,0,432.2,753a40.6,40.6,0,0,0,16.1,3.2,46.1,46.1,0,0,0,10.3-1,32.6,32.6,0,0,0,8.5-2.8,37.5,37.5,0,0,0,7.2-4.4,53.4,53.4,0,0,0,4.4-3.9,2.6,2.6,0,0,0,0-3.8Z"/><path class="cls-19" d="M577.5,678.5v27.2a1.5,1.5,0,0,1-1.5,1.5H547a1.5,1.5,0,0,1-1.5-1.5V678.5a2.4,2.4,0,0,0-2.4-2.4H530.6a2.4,2.4,0,0,0-2.4,2.4v73.9a2.4,2.4,0,0,0,2.4,2.4h12.5a2.4,2.4,0,0,0,2.4-2.4V724.7a1.5,1.5,0,0,1,1.5-1.5h29a1.5,1.5,0,0,1,1.5,1.5v27.7a2.4,2.4,0,0,0,2.4,2.4h12.5a2.4,2.4,0,0,0,2.4-2.4V678.5a2.4,2.4,0,0,0-2.4-2.4H579.9A2.4,2.4,0,0,0,577.5,678.5Z"/><path class="cls-20" d="M686.7,675.5h-8.5a5.7,5.7,0,0,0-5.2,3.4l-31,73a2.1,2.1,0,0,0,2,2.9h11.5a4.3,4.3,0,0,0,4-2.6l6.1-15,6.2-15.3,9.3-22.7a1.2,1.2,0,0,1,2.3,0l9.3,22.7,6.2,15.3,6.1,15a4.4,4.4,0,0,0,4,2.6h12a2.1,2.1,0,0,0,2-2.9l-31.1-73A5.6,5.6,0,0,0,686.7,675.5Z"/><path class="cls-21" d="M770.9,678.5v73.9a2.4,2.4,0,0,0,2.5,2.4h12.4a2.4,2.4,0,0,0,2.5-2.4V678.5a2.4,2.4,0,0,0-2.5-2.4H773.4A2.4,2.4,0,0,0,770.9,678.5Z"/><path class="cls-22" d="M95,787.6a4.9,4.9,0,0,0,1.7,2.2,11.9,11.9,0,0,0,3.4,1.7,26.7,26.7,0,0,0,5.5,1.5c4.6,1.1,8,2.5,10.2,4.3a9.3,9.3,0,0,1,3.2,7.4,10.5,10.5,0,0,1-3.9,8.5,11.1,11.1,0,0,1-4.4,2.4,20.1,20.1,0,0,1-5.7.8,24.4,24.4,0,0,1-9-1.6,23.9,23.9,0,0,1-7.7-4.9l2.9-3.4a23.3,23.3,0,0,0,6.5,4.4,19.3,19.3,0,0,0,7.5,1.4,10.7,10.7,0,0,0,6.7-1.9,6.3,6.3,0,0,0,2.5-5.1,6.7,6.7,0,0,0-.5-2.6,5.4,5.4,0,0,0-1.6-2.1,10.2,10.2,0,0,0-3.3-1.7,52.6,52.6,0,0,0-5.3-1.5,38.6,38.6,0,0,1-6.2-1.8,12.7,12.7,0,0,1-4.3-2.4,8.1,8.1,0,0,1-2.5-3.3,9.9,9.9,0,0,1-.8-4.4,9.3,9.3,0,0,1,1-4.5,9.8,9.8,0,0,1,2.8-3.6A13.7,13.7,0,0,1,98,775a17.8,17.8,0,0,1,5.3-.8,23,23,0,0,1,7.9,1.2,24.5,24.5,0,0,1,6.6,3.8l-2.7,3.6a19.5,19.5,0,0,0-5.8-3.4,17.8,17.8,0,0,0-6.1-1.1,13.6,13.6,0,0,0-3.6.5,11.3,11.3,0,0,0-2.7,1.4,5.5,5.5,0,0,0-1.8,2.2,5.8,5.8,0,0,0-.6,2.6A5.3,5.3,0,0,0,95,787.6Z"/><path class="cls-23" d="M133.1,797.4v18.4h-4.7v-41h4.7V793h23.7V774.8h4.6v41h-4.6V797.4Z"/><path class="cls-24" d="M211.3,815.8h-5L201.5,805H179.1l-4.8,10.8h-4.8l18.7-41.3h4.3Zm-21-35.9-9.4,21h18.7Z"/><path class="cls-25" d="M248.8,793.7a11.9,11.9,0,0,1-3.5,4.2,15.4,15.4,0,0,1-5.1,2.6,21.5,21.5,0,0,1-6.2.8H224v14.5h-4.7v-41h15.4a20.8,20.8,0,0,1,6.3.9,15.3,15.3,0,0,1,4.9,2.6,11.4,11.4,0,0,1,3.1,4.1,13.9,13.9,0,0,1-.2,11.3Zm-6.4-12.4a13.1,13.1,0,0,0-8-2.2H224v18h10.2a17,17,0,0,0,4.6-.6,10.3,10.3,0,0,0,3.6-1.9,8.9,8.9,0,0,0,2.3-2.8,9.5,9.5,0,0,0,.7-3.8A7.9,7.9,0,0,0,242.4,781.3Z"/><path class="cls-26" d="M263.6,774.8v41h-4.7v-41Z"/><path class="cls-27" d="M305.8,774.8h4.5v41h-3.7l-26.5-33.6v33.6h-4.5v-41h4.3l25.9,32.9Z"/><path class="cls-28" d="M350.4,814.7a23.5,23.5,0,0,1-9.4,1.8,21.4,21.4,0,0,1-8.7-1.6,19.3,19.3,0,0,1-6.6-4.5,20.5,20.5,0,0,1-4.2-6.8,24.3,24.3,0,0,1-1.4-8.2,22.4,22.4,0,0,1,1.5-8.1,19.9,19.9,0,0,1,19.1-13.2,33.8,33.8,0,0,1,4.7.3,23.4,23.4,0,0,1,4,1.1,22.6,22.6,0,0,1,3.5,1.7l3.1,2.3-3,3.6a15.7,15.7,0,0,0-2.5-2,17.1,17.1,0,0,0-2.7-1.4,15.9,15.9,0,0,0-3.3-1,24.1,24.1,0,0,0-4-.3,14.3,14.3,0,0,0-11.2,5,16.7,16.7,0,0,0-3.2,5.3,18.4,18.4,0,0,0-1.2,6.6,19.1,19.1,0,0,0,1.2,6.8,15.9,15.9,0,0,0,3.2,5.5,14.1,14.1,0,0,0,5.1,3.5,16.5,16.5,0,0,0,6.8,1.3,18.4,18.4,0,0,0,6.6-1.2,19.6,19.6,0,0,0,5.2-2.9V798.1H340.5V794h17v16.3A27.6,27.6,0,0,1,350.4,814.7Z"/><path class="cls-29" d="M410.4,774.7h3.8L425.4,809l11.8-34.2H442l-14.6,41.3h-4l-11.2-33.3-11.3,33.3H397l-14.7-41.3h5.1L399.1,809Z"/><path class="cls-30" d="M480.1,779H455v14h22.4v4.2H455v14.4h25.4v4.2h-30v-41h29.7Z"/><path class="cls-31" d="M512.6,775.5a13.3,13.3,0,0,1,4.3,2.1,9.4,9.4,0,0,1,2.7,3.2,9.9,9.9,0,0,1,.9,4.2,9.7,9.7,0,0,1-.6,3.6,7.2,7.2,0,0,1-1.5,2.7,9.5,9.5,0,0,1-2,2,14.1,14.1,0,0,1-2.4,1.3,20.2,20.2,0,0,1,3.4,1.4,9.5,9.5,0,0,1,2.8,2,9.2,9.2,0,0,1,1.9,2.8,11.2,11.2,0,0,1,.7,3.8,10.5,10.5,0,0,1-1.1,4.7,10.3,10.3,0,0,1-3,3.6,15.7,15.7,0,0,1-4.7,2.2,23.2,23.2,0,0,1-6.1.7H489.7v-41h17.4A18.4,18.4,0,0,1,512.6,775.5Zm.6,15.7a6.3,6.3,0,0,0,2.7-5.5,5.9,5.9,0,0,0-2.4-5c-1.5-1.2-3.8-1.8-6.7-1.8H494.3v14.2h12.1A11,11,0,0,0,513.2,791.2Zm2.3,18.6a6.3,6.3,0,0,0,2.6-5.5,6.1,6.1,0,0,0-2.7-5.3q-2.7-1.8-8.1-1.8h-13v14.5h13.8C511.2,811.7,513.7,811.1,515.5,809.8Z"/><path class="cls-32" d="M531.3,778.9v-4.1h26.2v3.4l-12.8,14.3a21,21,0,0,1,5.1,1,11.7,11.7,0,0,1,4.3,2.2,9.9,9.9,0,0,1,2.9,3.5,9.6,9.6,0,0,1,1.1,4.9,11.8,11.8,0,0,1-3.9,9,13.6,13.6,0,0,1-4.4,2.5,15.1,15.1,0,0,1-5.3.9,18.1,18.1,0,0,1-9-2,19,19,0,0,1-6.3-5.3l3.3-3a17,17,0,0,0,5.3,4.5,14.2,14.2,0,0,0,10.3,1.1,8.8,8.8,0,0,0,2.8-1.7,7.9,7.9,0,0,0,1.9-2.5,7.2,7.2,0,0,0,.7-3.3,6.6,6.6,0,0,0-3.2-5.9,14.8,14.8,0,0,0-8.3-2.1h-2.6l-1-2.8,13-14.6Z"/><path class="cls-33" d="M601.1,815.8h-4.7V779.1H582.7v-4.3h32.2v4.3H601.1Z"/><path class="cls-34" d="M659.3,803.4a19.7,19.7,0,0,1-4.3,6.7,18.5,18.5,0,0,1-6.6,4.7,22.4,22.4,0,0,1-17.1,0,18.3,18.3,0,0,1-6.6-4.6,21.1,21.1,0,0,1-4.2-6.7,22.9,22.9,0,0,1,0-16.3,21.2,21.2,0,0,1,10.9-11.4,21.6,21.6,0,0,1,8.6-1.7,19.9,19.9,0,0,1,8.5,1.7,20.2,20.2,0,0,1,6.6,4.6,21.1,21.1,0,0,1,4.2,6.7,22.9,22.9,0,0,1,0,16.3Zm-4.5-14.7a17,17,0,0,0-3.4-5.4,15.7,15.7,0,0,0-5.1-3.6,15.4,15.4,0,0,0-6.5-1.3,15,15,0,0,0-6.4,1.3,15.7,15.7,0,0,0-5.1,3.6,16.3,16.3,0,0,0-3.3,5.4,17.5,17.5,0,0,0-1.2,6.5,17.8,17.8,0,0,0,4.5,12.1,17.3,17.3,0,0,0,5.2,3.6,15.6,15.6,0,0,0,12.9,0,13.2,13.2,0,0,0,5.1-3.6,16.9,16.9,0,0,0,3.3-5.3,19,19,0,0,0,0-13.3Z"/><path class="cls-35" d="M699.1,814.7a23.5,23.5,0,0,1-9.4,1.8,21.4,21.4,0,0,1-8.7-1.6,19.3,19.3,0,0,1-6.6-4.5,20.5,20.5,0,0,1-4.2-6.8,24.3,24.3,0,0,1-1.4-8.2,22.4,22.4,0,0,1,1.5-8.1,19.9,19.9,0,0,1,19.1-13.2,33.8,33.8,0,0,1,4.7.3,23.4,23.4,0,0,1,4,1.1,22.6,22.6,0,0,1,3.5,1.7l3.1,2.3-3,3.6a15.7,15.7,0,0,0-2.5-2,17.1,17.1,0,0,0-2.7-1.4,15.9,15.9,0,0,0-3.3-1,24.1,24.1,0,0,0-4-.3,14.3,14.3,0,0,0-11.2,5,16.7,16.7,0,0,0-3.2,5.3,18.4,18.4,0,0,0-1.2,6.6,19.1,19.1,0,0,0,1.2,6.8,15.9,15.9,0,0,0,3.2,5.5,14.1,14.1,0,0,0,5.1,3.5,16.5,16.5,0,0,0,6.8,1.3,18.4,18.4,0,0,0,6.6-1.2,19.6,19.6,0,0,0,5.2-2.9V798.1H689.2V794h17v16.3A27.6,27.6,0,0,1,699.1,814.7Z"/><path class="cls-36" d="M746.3,779H721.2v14h22.4v4.2H721.2v14.4h25.4v4.2h-30v-41h29.7Z"/><path class="cls-37" d="M771.4,815.8h-4.7V779.1H753v-4.3h32.2v4.3H771.4Z"/><path class="cls-38" d="M798.5,797.4v18.4h-4.6v-41h4.6V793h23.7V774.8h4.7v41h-4.7V797.4Z"/><path class="cls-39" d="M868.1,779h-25v14h22.4v4.2H843.1v14.4h25.3v4.2H838.5v-41h29.6Z"/><path class="cls-40" d="M906,815.8l-11.9-15.9H882.4v15.9h-4.6v-41h17.6a19.1,19.1,0,0,1,6.1.9,11.8,11.8,0,0,1,4.7,2.5,10.2,10.2,0,0,1,3,3.8,11.8,11.8,0,0,1,1.1,5,11.6,11.6,0,0,1-.9,4.7,10.1,10.1,0,0,1-2.3,3.5,14.8,14.8,0,0,1-3.5,2.5,21.5,21.5,0,0,1-4.5,1.4l12.6,16.7Zm-3.1-34.6a12.9,12.9,0,0,0-7.8-2.1H882.4v16.7H895a14.4,14.4,0,0,0,4.3-.6,10.3,10.3,0,0,0,3.3-1.7,6.4,6.4,0,0,0,2.2-2.7,6.8,6.8,0,0,0,.8-3.6A7.3,7.3,0,0,0,902.9,781.2Z"/></g></svg>