<svg xmlns="http://www.w3.org/2000/svg" xmlns:xlink="http://www.w3.org/1999/xlink" viewBox="0 0 1000 1000"><defs><style>.cls-1{fill:url(#linear-gradient);}.cls-2{fill:url(#linear-gradient-2);}.cls-3{fill:url(#linear-gradient-3);}.cls-4{fill:url(#linear-gradient-4);}.cls-5{opacity:0.15;}.cls-6{fill:url(#linear-gradient-5);}.cls-7{fill:url(#linear-gradient-6);}.cls-8{fill:url(#linear-gradient-7);}.cls-9{fill:url(#linear-gradient-8);}.cls-10{fill:url(#linear-gradient-9);}.cls-11{fill:url(#linear-gradient-10);}.cls-12{fill:url(#linear-gradient-11);}.cls-13{fill:url(#linear-gradient-12);}.cls-14{fill:url(#linear-gradient-13);}.cls-15{fill:url(#linear-gradient-14);}.cls-16{fill:url(#linear-gradient-15);}.cls-17{fill:url(#linear-gradient-16);}.cls-18{fill:url(#linear-gradient-17);}.cls-19{fill:url(#linear-gradient-18);}.cls-20{fill:url(#linear-gradient-19);}.cls-21{fill:url(#linear-gradient-20);}</style><linearGradient id="linear-gradient" x1="592.51" y1="440.56" x2="859.99" y2="440.56" gradientUnits="userSpaceOnUse"><stop offset="0" stop-color="#af42f7"/><stop offset="1" stop-color="#4a008a"/></linearGradient><linearGradient id="linear-gradient-2" x1="601.37" y1="270.97" x2="859.99" y2="270.97" xlink:href="#linear-gradient"/><linearGradient id="linear-gradient-3" x1="82.19" y1="270.44" x2="315" y2="503.25" xlink:href="#linear-gradient"/><linearGradient id="linear-gradient-4" x1="325.7" y1="255.33" x2="526.6" y2="456.23" xlink:href="#linear-gradient"/><linearGradient id="linear-gradient-5" x1="416.98" y1="355.77" x2="743.11" y2="355.77" xlink:href="#linear-gradient"/><linearGradient id="linear-gradient-6" x1="125.24" y1="572.15" x2="125.24" y2="785.68" gradientUnits="userSpaceOnUse"><stop offset="0" stop-color="#fff"/><stop offset="1" stop-color="#f7f7f7"/></linearGradient><linearGradient id="linear-gradient-7" x1="220.08" y1="572.15" x2="220.08" y2="785.68" xlink:href="#linear-gradient-6"/><linearGradient id="linear-gradient-8" x1="322.57" y1="572.15" x2="322.57" y2="785.68" xlink:href="#linear-gradient-6"/><linearGradient id="linear-gradient-9" x1="436.43" y1="572.15" x2="436.43" y2="785.68" xlink:href="#linear-gradient-6"/><linearGradient id="linear-gradient-10" x1="548.86" y1="572.15" x2="548.86" y2="785.68" xlink:href="#linear-gradient-6"/><linearGradient id="linear-gradient-11" x1="659.17" y1="572.15" x2="659.17" y2="785.68" xlink:href="#linear-gradient-6"/><linearGradient id="linear-gradient-12" x1="760.38" y1="572.15" x2="760.38" y2="785.68" xlink:href="#linear-gradient-6"/><linearGradient id="linear-gradient-13" x1="867.88" y1="572.15" x2="867.88" y2="785.68" xlink:href="#linear-gradient-6"/><linearGradient id="linear-gradient-14" x1="130.14" y1="572.15" x2="130.14" y2="785.68" xlink:href="#linear-gradient-6"/><linearGradient id="linear-gradient-15" x1="256.19" y1="572.15" x2="256.19" y2="785.68" xlink:href="#linear-gradient-6"/><linearGradient id="linear-gradient-16" x1="876.72" y1="572.15" x2="876.72" y2="785.68" xlink:href="#linear-gradient-6"/><linearGradient id="linear-gradient-17" x1="443.7" y1="572.15" x2="443.7" y2="785.68" xlink:href="#linear-gradient-6"/><linearGradient id="linear-gradient-18" x1="561.5" y1="572.15" x2="561.5" y2="785.68" xlink:href="#linear-gradient-6"/><linearGradient id="linear-gradient-19" x1="682.48" y1="572.15" x2="682.48" y2="785.68" xlink:href="#linear-gradient-6"/><linearGradient id="linear-gradient-20" x1="779.6" y1="572.15" x2="779.6" y2="785.68" xlink:href="#linear-gradient-6"/></defs><title>LOC_Logo_text_no_tagline_purple_white</title><g id="Layer_1" data-name="Layer 1"><path class="cls-1" d="M832.5,383.2h0c21,0,34.2,22.6,24,41.1l-1.5,2.6a142.3,142.3,0,0,1-153.2,67.8A141.4,141.4,0,0,1,649,471.1a145,145,0,0,1-39.6-43.3,142.8,142.8,0,0,1-16.9-44.6h56.8a87.1,87.1,0,0,0,159,14.4A27.8,27.8,0,0,1,832.5,383.2Z"/><path class="cls-2" d="M601.9,303c-1.6-3.2,1-7,2.4-9.8A144.1,144.1,0,0,1,669.6,228a141.9,141.9,0,0,1,91.1-11.4c30.3,6.3,59,22.8,78.9,46.5,2.2,2.9,4.7,5.6,6.8,8.5s4.3,6.1,6.3,9.2,2.6,4.3,3.8,6.5c10.2,18.4-3,41-24,41h0a27.8,27.8,0,0,1-24.3-14.6,87.1,87.1,0,0,0-113.4-36.8,86.6,86.6,0,0,0-19,12.2,91.6,91.6,0,0,0-8.4,8.1c-2.6,2.8-4.8,5.7-8.4,7.3s-5.9,1.4-9,1.4H606.7A5.3,5.3,0,0,1,601.9,303Z"/><path class="cls-3" d="M291.9,470.4a27.1,27.1,0,0,1-8,19.4,27.4,27.4,0,0,1-19.5,8.1H167.5A27.5,27.5,0,0,1,140,470.4V241.1a27.5,27.5,0,0,1,55,0V426.3a16.5,16.5,0,0,0,16.5,16.6h52.9A27.5,27.5,0,0,1,291.9,470.4Z"/><path class="cls-4" d="M565.6,383.2A142.1,142.1,0,1,1,325.7,255.3a142.2,142.2,0,0,1,239.9,73H508.9a82.8,82.8,0,0,0-11.3-22.4,84.1,84.1,0,0,0-9.8-11.8,87.3,87.3,0,1,0,0,123.3,86.1,86.1,0,0,0,21.1-34.2Z"/><path class="cls-5" d="M508.9,328.3h0a82.8,82.8,0,0,0-11.3-22.4l68,22.4Z"/><path class="cls-5" d="M649.2,383.2h0a84.3,84.3,0,0,0,11.3,22.4l-68-22.5Z"/><path class="cls-6" d="M743.1,355.8a27.5,27.5,0,0,1-27.5,27.4H442.5a27.5,27.5,0,0,1,0-54.9H715.6A27.5,27.5,0,0,1,743.1,355.8Z"/><path class="cls-7" d="M156.1,660.4H120.8a5.5,5.5,0,0,1-5.5-5.5V580.4a6.1,6.1,0,0,0-6.2-6.1H94.4a6.1,6.1,0,0,0-6.1,6.1v95.8a10,10,0,0,0,10,10h57.8a6.1,6.1,0,0,0,6.1-6.1V666.5A6.1,6.1,0,0,0,156.1,660.4Z"/><path class="cls-8" d="M212.7,595.1h39.9a6.1,6.1,0,0,0,6.1-6.1v-8.6a6.1,6.1,0,0,0-6.1-6.1H191.5a10.1,10.1,0,0,0-10,10.1v91.8a10,10,0,0,0,10,10h60.9a6.1,6.1,0,0,0,6.1-6.1v-8.5a6.1,6.1,0,0,0-6.1-6.1H212.7a4.4,4.4,0,0,1-4.3-4.3V643a4.3,4.3,0,0,1,4.3-4.3h32.1a6.1,6.1,0,0,0,6.1-6.1v-7.8a6.2,6.2,0,0,0-6.1-6.1H212.7a4.3,4.3,0,0,1-4.3-4.2V599.4A4.4,4.4,0,0,1,212.7,595.1Z"/><path class="cls-9" d="M373.4,678,337,579.4a7.7,7.7,0,0,0-7.3-5.1H315.2a7.7,7.7,0,0,0-7.3,5.1L271.7,678a6.1,6.1,0,0,0,5.7,8.2H293a6.1,6.1,0,0,0,5.9-4.3l21.5-69.5a2.1,2.1,0,0,1,4.1,0l21.6,69.5a6.1,6.1,0,0,0,5.9,4.3h15.7A6.1,6.1,0,0,0,373.4,678Z"/><path class="cls-10" d="M473.7,600a48.3,48.3,0,0,0-18.5-19,54,54,0,0,0-26.7-6.7h-26a10.1,10.1,0,0,0-10,10.1v91.8a10,10,0,0,0,10,10h26.8a52.1,52.1,0,0,0,26.3-6.9,47.4,47.4,0,0,0,18.3-19.1,58,58,0,0,0,6.5-27.6v-5.1A58.5,58.5,0,0,0,473.7,600Zm-20.8,32.6c0,10.9-2.1,19.1-6.2,24.6s-10.1,8.3-17.9,8.3H424a4.6,4.6,0,0,1-4.5-4.6V599.6a4.5,4.5,0,0,1,4.5-4.5h4.5c8,0,14,2.8,18.2,8.3s6.2,13.6,6.2,24.4Z"/><path class="cls-11" d="M589.5,574.3H574.9a6.1,6.1,0,0,0-6.1,6.1v34.3a4,4,0,0,1-4,4H533.1a4,4,0,0,1-4-4V580.4a6.1,6.1,0,0,0-6.1-6.1H508.2a6.1,6.1,0,0,0-6.1,6.1v99.7a6.1,6.1,0,0,0,6.1,6.1H523a6.1,6.1,0,0,0,6.1-6.1V643.5a4,4,0,0,1,4-4h31.7a4,4,0,0,1,4,4v36.6a6.1,6.1,0,0,0,6.1,6.1h14.6a6.1,6.1,0,0,0,6.1-6.1V580.4A6.1,6.1,0,0,0,589.5,574.3Z"/><path class="cls-12" d="M651.8,595.1h39.9a6.1,6.1,0,0,0,6.1-6.1v-8.6a6.1,6.1,0,0,0-6.1-6.1H630.6a10.1,10.1,0,0,0-10,10.1v91.8a10,10,0,0,0,10,10h60.9a6.1,6.1,0,0,0,6.1-6.1v-8.5a6.1,6.1,0,0,0-6.1-6.1H651.8a4.3,4.3,0,0,1-4.3-4.3V643a4.3,4.3,0,0,1,4.3-4.3h32.1a6,6,0,0,0,6-6.1v-7.8a6.1,6.1,0,0,0-6-6.1H651.8a4.2,4.2,0,0,1-4.3-4.2V599.4A4.3,4.3,0,0,1,651.8,595.1Z"/><path class="cls-13" d="M803.8,680.5l-20.4-40.6c6.7-3.2,11.6-7.3,14.7-12.5s4.8-11.5,4.8-19.3c0-10.8-3.8-19.1-11.2-25s-17.9-8.8-31.2-8.8H726.6a10.1,10.1,0,0,0-10.1,10.1v95.7a6.1,6.1,0,0,0,6.1,6.1h14.8a6.1,6.1,0,0,0,6.1-6.1V649.3a2.7,2.7,0,0,1,2.6-2.7h8.3a5.9,5.9,0,0,1,5.3,3.3l16.4,32.9a6.2,6.2,0,0,0,5.5,3.4h18.7A3.9,3.9,0,0,0,803.8,680.5Zm-31.7-58.7c-2.6,2.7-6.4,4.1-11.6,4.1H746.1a2.7,2.7,0,0,1-2.6-2.7V597.7a2.6,2.6,0,0,1,2.6-2.6h14.4c5.1,0,8.9,1.3,11.6,4.1s3.9,6.5,3.9,11.3S774.7,619.1,772.1,621.8Z"/><path class="cls-14" d="M893.6,627.5a92.2,92.2,0,0,0-19.1-8c-7.7-2.5-13.1-4.9-16.2-7.3s-4.6-4.9-4.6-7.8a10,10,0,0,1,4.2-8.1c2.8-2.1,6.6-3.2,11.4-3.2s8.5,1.3,11.3,3.8a11.3,11.3,0,0,1,3.7,6.2,6,6,0,0,0,5.9,4.4H905a6.1,6.1,0,0,0,6-7.3,29.9,29.9,0,0,0-4.6-10.9,34.4,34.4,0,0,0-14.8-12.2,51.9,51.9,0,0,0-21.7-4.3,60.7,60.7,0,0,0-22.3,3.9q-9.9,4-15.3,11.1a26.3,26.3,0,0,0-5.4,16.4c0,12.5,7.2,22.2,21.7,29.4a154.2,154.2,0,0,0,17.2,6.8c7.1,2.4,12,4.6,14.8,6.8a11.4,11.4,0,0,1,4.2,9.3,9.4,9.4,0,0,1-3.9,8.1c-2.6,1.9-6.1,2.9-10.6,2.9-7,0-12-1.5-15.1-4.3a14.1,14.1,0,0,1-4.2-8.3,6.3,6.3,0,0,0-6.2-5H830.2a6.2,6.2,0,0,0-6.1,7.3,33.3,33.3,0,0,0,5,12.3c3.7,5.7,9.2,10.1,16.6,13.4a60.7,60.7,0,0,0,24.6,4.8c12.9,0,23-2.7,30.4-8.3s11-13.3,11-23.1C911.7,644.1,905.7,634.5,893.6,627.5Z"/><path class="cls-15" d="M168.9,729.6a36.4,36.4,0,0,0-8.7-12.8,39.9,39.9,0,0,0-13.2-8.7,43.7,43.7,0,0,0-16.8-3.2,44.5,44.5,0,0,0-16.8,3.2,41.7,41.7,0,0,0-13.3,8.8,40.8,40.8,0,0,0-8.7,12.9,39.8,39.8,0,0,0-3.1,15.8v.3a39.8,39.8,0,0,0,3.1,15.8,37.5,37.5,0,0,0,8.6,12.8,42.9,42.9,0,0,0,13.3,8.6,41.8,41.8,0,0,0,16.7,3.3,42.8,42.8,0,0,0,16.9-3.3,39.7,39.7,0,0,0,21.9-21.7,38.2,38.2,0,0,0,3.2-15.8v-.2A39.8,39.8,0,0,0,168.9,729.6Zm-15,16.3a25.5,25.5,0,0,1-1.8,9.5,24.2,24.2,0,0,1-4.8,7.8,23.7,23.7,0,0,1-7.5,5.3,24.9,24.9,0,0,1-9.6,1.9,23.2,23.2,0,0,1-9.6-2,23.7,23.7,0,0,1-7.5-5.3,25.9,25.9,0,0,1-5-7.9,27.7,27.7,0,0,1-1.7-9.6v-.2a27.1,27.1,0,0,1,1.7-9.5,24,24,0,0,1,4.9-7.8,20.9,20.9,0,0,1,7.4-5.3,25.2,25.2,0,0,1,19.2,0,23.6,23.6,0,0,1,12.5,13.3,25.5,25.5,0,0,1,1.8,9.5Z"/><path class="cls-16" d="M274.1,708.7v42.5a1.2,1.2,0,0,1-2.1.8l-33.4-43.9a4.7,4.7,0,0,0-3.8-1.9H224.6a3.4,3.4,0,0,0-3.4,3.4v73a2.4,2.4,0,0,0,2.4,2.4h12.3a2.4,2.4,0,0,0,2.4-2.4V738.4a1.2,1.2,0,0,1,2.1-.7L275,783.2a4.9,4.9,0,0,0,3.8,1.8h9a3.4,3.4,0,0,0,3.4-3.4V708.7a2.5,2.5,0,0,0-2.5-2.5H276.5A2.5,2.5,0,0,0,274.1,708.7Z"/><path class="cls-17" d="M894.6,708.7v42.5a1.2,1.2,0,0,1-2.1.8l-33.4-43.9a4.7,4.7,0,0,0-3.7-1.9H845.1a3.5,3.5,0,0,0-3.4,3.4v73a2.5,2.5,0,0,0,2.5,2.4h12.2a2.4,2.4,0,0,0,2.4-2.4V738.4a1.2,1.2,0,0,1,2.2-.7l34.6,45.5a4.7,4.7,0,0,0,3.7,1.8h9a3.4,3.4,0,0,0,3.4-3.4V708.7a2.5,2.5,0,0,0-2.4-2.5H897.1A2.5,2.5,0,0,0,894.6,708.7Z"/><path class="cls-18" d="M471.3,762.9a2.7,2.7,0,0,0-3.6-.1,37.7,37.7,0,0,1-7.4,5.1,23.8,23.8,0,0,1-11.5,2.5,21.7,21.7,0,0,1-9.2-2,22.4,22.4,0,0,1-7.2-5.3,25.1,25.1,0,0,1-4.7-7.9,27.7,27.7,0,0,1-1.7-9.6v-.2a27.1,27.1,0,0,1,1.7-9.5,23.6,23.6,0,0,1,4.7-7.8,21.9,21.9,0,0,1,16.4-7.2,25.2,25.2,0,0,1,10.8,2.3,41.2,41.2,0,0,1,7.4,4.9,2.8,2.8,0,0,0,3.7-.3l7.6-8.8a2.7,2.7,0,0,0-.2-3.8c-1.2-1.1-2.6-2.1-3.9-3.1a32.9,32.9,0,0,0-6.9-3.8,38.5,38.5,0,0,0-8.3-2.5,51.6,51.6,0,0,0-10-.9,42.9,42.9,0,0,0-16.7,3.2,38.9,38.9,0,0,0-12.9,8.8,40.2,40.2,0,0,0-8.5,12.9,41.5,41.5,0,0,0-3,15.8v.3a41.5,41.5,0,0,0,3,15.8,38.2,38.2,0,0,0,8.5,12.9,39.5,39.5,0,0,0,12.8,8.6,40.6,40.6,0,0,0,16.1,3.2,52.9,52.9,0,0,0,10.3-1,36.9,36.9,0,0,0,8.5-2.8,33.5,33.5,0,0,0,7.2-4.5,31.6,31.6,0,0,0,4.4-3.9,2.6,2.6,0,0,0,0-3.8Z"/><path class="cls-19" d="M577.5,708.7v27.2a1.5,1.5,0,0,1-1.5,1.5H547a1.5,1.5,0,0,1-1.5-1.5V708.7a2.5,2.5,0,0,0-2.4-2.5H530.6a2.5,2.5,0,0,0-2.4,2.5v73.9a2.4,2.4,0,0,0,2.4,2.4h12.5a2.4,2.4,0,0,0,2.4-2.4V754.9a1.5,1.5,0,0,1,1.5-1.5h29a1.5,1.5,0,0,1,1.5,1.5v27.7a2.4,2.4,0,0,0,2.4,2.4h12.5a2.4,2.4,0,0,0,2.4-2.4V708.7a2.5,2.5,0,0,0-2.4-2.5H579.9A2.5,2.5,0,0,0,577.5,708.7Z"/><path class="cls-20" d="M686.7,705.7h-8.5a5.7,5.7,0,0,0-5.2,3.4L642,782a2.1,2.1,0,0,0,2,3h11.5a4.2,4.2,0,0,0,4-2.7l6.1-15,6.2-15.3,9.3-22.6a1.2,1.2,0,0,1,2.3,0l9.3,22.6,6.2,15.3,6.1,15a4.3,4.3,0,0,0,4,2.7h12a2.2,2.2,0,0,0,2-3l-31.1-72.9A5.6,5.6,0,0,0,686.7,705.7Z"/><path class="cls-21" d="M770.9,708.7v73.9a2.5,2.5,0,0,0,2.5,2.4h12.4a2.5,2.5,0,0,0,2.5-2.4V708.7a2.5,2.5,0,0,0-2.5-2.5H773.4A2.5,2.5,0,0,0,770.9,708.7Z"/></g></svg>