<svg xmlns="http://www.w3.org/2000/svg" xmlns:xlink="http://www.w3.org/1999/xlink" viewBox="0 0 1680.4 637.3"><defs><style>.cls-1{fill:url(#linear-gradient);}.cls-2{fill:url(#linear-gradient-2);}.cls-3{fill:url(#linear-gradient-3);}.cls-4{fill:url(#linear-gradient-4);}.cls-5{fill:url(#linear-gradient-5);}.cls-6{fill:url(#linear-gradient-6);}.cls-7{fill:url(#linear-gradient-7);}.cls-8{fill:url(#linear-gradient-8);}.cls-9{fill:url(#linear-gradient-9);}.cls-10{fill:url(#linear-gradient-10);}.cls-11{fill:url(#linear-gradient-11);}.cls-12{fill:url(#linear-gradient-12);}.cls-13{fill:url(#linear-gradient-13);}.cls-14{fill:url(#linear-gradient-14);}.cls-15{fill:url(#linear-gradient-15);}.cls-16{fill:url(#linear-gradient-16);}.cls-17{fill:url(#linear-gradient-17);}.cls-18{fill:url(#linear-gradient-18);}.cls-19{fill:url(#linear-gradient-19);}.cls-20{fill:url(#linear-gradient-20);}.cls-21{fill:url(#linear-gradient-21);}.cls-22{fill:url(#linear-gradient-22);}.cls-23{fill:url(#linear-gradient-23);}.cls-24{fill:url(#linear-gradient-24);}.cls-25{fill:url(#linear-gradient-25);}.cls-26{fill:url(#linear-gradient-26);}.cls-27{fill:url(#linear-gradient-27);}.cls-28{fill:url(#linear-gradient-28);}.cls-29{fill:url(#linear-gradient-29);}.cls-30{fill:url(#linear-gradient-30);}.cls-31{fill:url(#linear-gradient-31);}.cls-32{fill:url(#linear-gradient-32);}.cls-33{fill:url(#linear-gradient-33);}.cls-34{fill:url(#linear-gradient-34);}</style><linearGradient id="linear-gradient" x1="196.47" y1="64.83" x2="196.47" y2="551.74" gradientUnits="userSpaceOnUse"><stop offset="0" stop-color="#3c4449"/><stop offset="1" stop-color="#293033"/></linearGradient><linearGradient id="linear-gradient-2" x1="359.37" y1="64.83" x2="359.37" y2="551.74" xlink:href="#linear-gradient"/><linearGradient id="linear-gradient-3" x1="535.42" y1="64.83" x2="535.42" y2="551.74" xlink:href="#linear-gradient"/><linearGradient id="linear-gradient-4" x1="730.99" y1="64.83" x2="730.99" y2="551.74" xlink:href="#linear-gradient"/><linearGradient id="linear-gradient-5" x1="924.11" y1="64.83" x2="924.11" y2="551.74" xlink:href="#linear-gradient"/><linearGradient id="linear-gradient-6" x1="1113.6" y1="64.83" x2="1113.6" y2="551.74" xlink:href="#linear-gradient"/><linearGradient id="linear-gradient-7" x1="1287.43" y1="64.83" x2="1287.43" y2="551.74" xlink:href="#linear-gradient"/><linearGradient id="linear-gradient-8" x1="1472.09" y1="64.83" x2="1472.09" y2="551.74" xlink:href="#linear-gradient"/><linearGradient id="linear-gradient-9" x1="204.9" y1="64.83" x2="204.9" y2="551.74" xlink:href="#linear-gradient"/><linearGradient id="linear-gradient-10" x1="421.39" y1="64.83" x2="421.39" y2="551.74" xlink:href="#linear-gradient"/><linearGradient id="linear-gradient-11" x1="1487.27" y1="64.83" x2="1487.27" y2="551.74" xlink:href="#linear-gradient"/><linearGradient id="linear-gradient-12" x1="743.48" y1="64.83" x2="743.48" y2="551.74" xlink:href="#linear-gradient"/><linearGradient id="linear-gradient-13" x1="945.83" y1="64.83" x2="945.83" y2="551.74" xlink:href="#linear-gradient"/><linearGradient id="linear-gradient-14" x1="1153.62" y1="64.83" x2="1153.62" y2="551.74" xlink:href="#linear-gradient"/><linearGradient id="linear-gradient-15" x1="1320.45" y1="64.83" x2="1320.45" y2="551.74" xlink:href="#linear-gradient"/><linearGradient id="linear-gradient-16" x1="164.1" y1="64.83" x2="164.1" y2="551.74" xlink:href="#linear-gradient"/><linearGradient id="linear-gradient-17" x1="239.65" y1="64.83" x2="239.65" y2="551.74" xlink:href="#linear-gradient"/><linearGradient id="linear-gradient-18" x1="308.3" y1="64.83" x2="308.3" y2="551.74" xlink:href="#linear-gradient"/><linearGradient id="linear-gradient-19" x1="385.75" y1="64.83" x2="385.75" y2="551.74" xlink:href="#linear-gradient"/><linearGradient id="linear-gradient-20" x1="439.08" y1="64.83" x2="439.08" y2="551.74" xlink:href="#linear-gradient"/><linearGradient id="linear-gradient-21" x1="491.69" y1="64.83" x2="491.69" y2="551.74" xlink:href="#linear-gradient"/><linearGradient id="linear-gradient-22" x1="565.46" y1="64.83" x2="565.46" y2="551.74" xlink:href="#linear-gradient"/><linearGradient id="linear-gradient-23" x1="708.11" y1="64.83" x2="708.11" y2="551.74" xlink:href="#linear-gradient"/><linearGradient id="linear-gradient-24" x1="801.53" y1="64.83" x2="801.53" y2="551.74" xlink:href="#linear-gradient"/><linearGradient id="linear-gradient-25" x1="877.61" y1="64.83" x2="877.61" y2="551.74" xlink:href="#linear-gradient"/><linearGradient id="linear-gradient-26" x1="950.53" y1="64.83" x2="950.53" y2="551.74" xlink:href="#linear-gradient"/><linearGradient id="linear-gradient-27" x1="1062.13" y1="64.83" x2="1062.13" y2="551.74" xlink:href="#linear-gradient"/><linearGradient id="linear-gradient-28" x1="1124.01" y1="64.83" x2="1124.01" y2="551.74" xlink:href="#linear-gradient"/><linearGradient id="linear-gradient-29" x1="1199.97" y1="64.83" x2="1199.97" y2="551.74" xlink:href="#linear-gradient"/><linearGradient id="linear-gradient-30" x1="1276.64" y1="64.83" x2="1276.64" y2="551.74" xlink:href="#linear-gradient"/><linearGradient id="linear-gradient-31" x1="1334.96" y1="64.83" x2="1334.96" y2="551.74" xlink:href="#linear-gradient"/><linearGradient id="linear-gradient-32" x1="1396.55" y1="64.83" x2="1396.55" y2="551.74" xlink:href="#linear-gradient"/><linearGradient id="linear-gradient-33" x1="1468.11" y1="64.83" x2="1468.11" y2="551.74" xlink:href="#linear-gradient"/><linearGradient id="linear-gradient-34" x1="1530.29" y1="64.83" x2="1530.29" y2="551.74" xlink:href="#linear-gradient"/></defs><title>LOC_text_tagline_LowCap_grey</title><g id="Layer_1" data-name="Layer 1"><path class="cls-1" d="M249.5,215.9H188.9a9.6,9.6,0,0,1-9.6-9.6V78.4A10.5,10.5,0,0,0,168.8,68H143.5A10.5,10.5,0,0,0,133,78.4V242.9a17.3,17.3,0,0,0,17.3,17.3h99.2A10.5,10.5,0,0,0,260,249.7V226.3A10.5,10.5,0,0,0,249.5,215.9Z"/><path class="cls-2" d="M346.7,103.7h68.5a10.5,10.5,0,0,0,10.5-10.5V78.4A10.5,10.5,0,0,0,415.2,68H310.3A17.3,17.3,0,0,0,293,85.2V242.9a17.4,17.4,0,0,0,17.3,17.3H414.9a10.5,10.5,0,0,0,10.5-10.5V235a10.5,10.5,0,0,0-10.5-10.5H346.7a7.3,7.3,0,0,1-7.3-7.3V185.9a7.3,7.3,0,0,1,7.3-7.3h55.1a10.5,10.5,0,0,0,10.4-10.5V154.7a10.5,10.5,0,0,0-10.4-10.4H346.7a7.4,7.4,0,0,1-7.3-7.4V111.1A7.4,7.4,0,0,1,346.7,103.7Z"/><path class="cls-3" d="M622.8,246.1,560.2,76.7A13.3,13.3,0,0,0,547.7,68h-25a13.2,13.2,0,0,0-12.5,8.7L448.1,246.1a10.5,10.5,0,0,0,9.8,14.1h26.8a10.5,10.5,0,0,0,10-7.4l36.9-119.5a3.7,3.7,0,0,1,7.1,0l37.2,119.5a10.5,10.5,0,0,0,10,7.4H613A10.5,10.5,0,0,0,622.8,246.1Z"/><path class="cls-4" d="M795,112.1a81.8,81.8,0,0,0-31.8-32.6C749.6,71.8,734.4,68,717.4,68H672.8a17.2,17.2,0,0,0-17.3,17.2V242.9a17.3,17.3,0,0,0,17.3,17.3h45.9c16.6-.1,31.7-4.1,45.2-12a81.9,81.9,0,0,0,31.5-32.7c7.4-14,11.1-29.7,11.1-47.4v-8.8C806.4,141.9,802.6,126.1,795,112.1Zm-35.7,56c0,18.7-3.6,32.8-10.7,42.2s-17.4,14.2-30.7,14.2h-8.3a7.7,7.7,0,0,1-7.8-7.7V111.5a7.8,7.8,0,0,1,7.8-7.8h7.8q20.4,0,31.2,14.1c7.1,9.5,10.7,23.5,10.7,42Z"/><path class="cls-5" d="M993.9,68H968.8a10.5,10.5,0,0,0-10.4,10.4v59a6.9,6.9,0,0,1-6.9,6.9H897a6.9,6.9,0,0,1-6.9-6.9v-59A10.5,10.5,0,0,0,879.6,68H854.2a10.5,10.5,0,0,0-10.4,10.4V249.7a10.5,10.5,0,0,0,10.4,10.5h25.4a10.5,10.5,0,0,0,10.5-10.5V186.8a6.9,6.9,0,0,1,6.9-6.9h54.5a6.9,6.9,0,0,1,6.9,6.9v62.9a10.5,10.5,0,0,0,10.4,10.5h25.1a10.5,10.5,0,0,0,10.5-10.5V78.4A10.5,10.5,0,0,0,993.9,68Z"/><path class="cls-6" d="M1100.9,103.7h68.5a10.5,10.5,0,0,0,10.5-10.5V78.4A10.5,10.5,0,0,0,1169.4,68H1064.5a17.2,17.2,0,0,0-17.2,17.2V242.9a17.3,17.3,0,0,0,17.2,17.3h104.7a10.5,10.5,0,0,0,10.5-10.5V235a10.5,10.5,0,0,0-10.5-10.5h-68.3a7.3,7.3,0,0,1-7.3-7.3V185.9a7.3,7.3,0,0,1,7.3-7.3H1156a10.5,10.5,0,0,0,10.5-10.5V154.7a10.5,10.5,0,0,0-10.5-10.4h-55.1a7.4,7.4,0,0,1-7.3-7.4V111.1A7.4,7.4,0,0,1,1100.9,103.7Z"/><path class="cls-7" d="M1362.1,250.4l-35.2-69.8c11.5-5.5,20-12.6,25.4-21.4s8.1-19.9,8.1-33.2q0-27.7-19.2-42.9T1287.7,68h-58.4a17.2,17.2,0,0,0-17.2,17.2V249.7a10.5,10.5,0,0,0,10.4,10.5h25.4a10.5,10.5,0,0,0,10.5-10.5v-53a4.5,4.5,0,0,1,4.5-4.5h14.3a9.9,9.9,0,0,1,9,5.6l28.3,56.6a10.6,10.6,0,0,0,9.4,5.8H1356A6.8,6.8,0,0,0,1362.1,250.4Zm-54.5-100.8c-4.5,4.6-11.1,6.9-19.9,6.9h-24.8a4.5,4.5,0,0,1-4.5-4.5V108.1a4.5,4.5,0,0,1,4.5-4.5h24.8c8.7,0,15.3,2.4,19.8,7.1s6.7,11.2,6.7,19.5S1312,145,1307.6,149.6Z"/><path class="cls-8" d="M1516.2,159.3q-12.7-7.4-32.7-13.8c-13.3-4.2-22.6-8.4-27.8-12.4s-8-8.5-8-13.4a16.7,16.7,0,0,1,7.2-13.9c4.8-3.7,11.4-5.5,19.6-5.5s14.7,2.1,19.5,6.5a20.9,20.9,0,0,1,6.3,10.6,10.4,10.4,0,0,0,10.1,7.6h25.4a10.5,10.5,0,0,0,10.3-12.5,52.4,52.4,0,0,0-7.8-18.7c-6.1-9.2-14.6-16.2-25.5-21.1s-23.4-7.4-37.2-7.4-27,2.3-38.3,6.8-20.1,10.9-26.3,19a45.5,45.5,0,0,0-9.3,28.2q0,32.1,37.3,50.4a248.4,248.4,0,0,0,29.6,11.8c12.1,4,20.5,8,25.3,11.7s7.2,9.1,7.2,15.9-2.3,10.6-6.7,13.9-10.5,5-18.2,5c-11.9,0-20.6-2.5-25.9-7.4-3.7-3.4-6.2-8.1-7.2-14.2a10.9,10.9,0,0,0-10.7-8.6h-25.1a10.5,10.5,0,0,0-10.3,12.5,56.4,56.4,0,0,0,8.4,21.1c6.4,9.8,15.9,17.4,28.5,23s26.8,8.4,42.3,8.4q33.1,0,52.2-14.4c12.6-9.6,19-22.8,19-39.6Q1547.4,177.3,1516.2,159.3Z"/><path class="cls-9" d="M271.5,334.7a67.3,67.3,0,0,0-14.9-22.1,73.9,73.9,0,0,0-22.7-14.9,78.4,78.4,0,0,0-57.7,0,69.3,69.3,0,0,0-37.8,37.4,67.9,67.9,0,0,0-5.4,27.1v.4a68.7,68.7,0,0,0,5.3,27.2,66.4,66.4,0,0,0,14.9,22,72.8,72.8,0,0,0,22.7,14.9,78.4,78.4,0,0,0,57.7,0,69.6,69.6,0,0,0,37.8-37.3,68.8,68.8,0,0,0,5.4-27.2v-.4A69.7,69.7,0,0,0,271.5,334.7Zm-25.8,27.9a44.2,44.2,0,0,1-11.3,29.8,38,38,0,0,1-12.9,9,40.4,40.4,0,0,1-16.4,3.3,39.9,39.9,0,0,1-16.5-3.3,43.2,43.2,0,0,1-13-9.2,40.6,40.6,0,0,1-8.5-13.6,44.6,44.6,0,0,1-3-16.4v-.4a44.1,44.1,0,0,1,3-16.3,42.6,42.6,0,0,1,8.3-13.4,37.8,37.8,0,0,1,12.8-9.1,39.9,39.9,0,0,1,16.5-3.3,38.8,38.8,0,0,1,16.4,3.4,40.5,40.5,0,0,1,13.1,9.1,42.3,42.3,0,0,1,8.5,13.6,44.6,44.6,0,0,1,3,16.4Z"/><path class="cls-10" d="M452.1,298.7v73.2a2,2,0,0,1-3.6,1.2l-57.4-75.4a8.1,8.1,0,0,0-6.4-3.2H367.2a5.9,5.9,0,0,0-5.9,5.9V425.7a4.2,4.2,0,0,0,4.2,4.2h21a4.2,4.2,0,0,0,4.2-4.2V349.9a2,2,0,0,1,3.6-1.3l59.5,78.1a8.1,8.1,0,0,0,6.4,3.2h15.4a5.8,5.8,0,0,0,5.9-5.9V298.7a4.2,4.2,0,0,0-4.2-4.2h-21A4.2,4.2,0,0,0,452.1,298.7Z"/><path class="cls-11" d="M1518,298.7v73.2a2,2,0,0,1-3.6,1.2L1457,297.7a8.1,8.1,0,0,0-6.4-3.2H1433a5.9,5.9,0,0,0-5.8,5.9V425.7a4.2,4.2,0,0,0,4.2,4.2h21a4.1,4.1,0,0,0,4.1-4.2V349.9a2.1,2.1,0,0,1,3.7-1.3l59.5,78.1a8.1,8.1,0,0,0,6.4,3.2h15.4a5.8,5.8,0,0,0,5.9-5.9V298.7a4.2,4.2,0,0,0-4.2-4.2h-21A4.2,4.2,0,0,0,1518,298.7Z"/><path class="cls-12" d="M791,392a4.5,4.5,0,0,0-6.2-.3,75.8,75.8,0,0,1-12.9,8.8c-5.3,2.8-11.8,4.2-19.6,4.2a37.7,37.7,0,0,1-15.9-3.3,39.4,39.4,0,0,1-12.4-9.2,42.9,42.9,0,0,1-8-13.6,46.8,46.8,0,0,1-2.9-16.4v-.4a46.2,46.2,0,0,1,2.9-16.3,40.4,40.4,0,0,1,8.1-13.4,36.7,36.7,0,0,1,12.5-9.1,37.4,37.4,0,0,1,15.7-3.3,41.2,41.2,0,0,1,18.5,4,68.6,68.6,0,0,1,12.8,8.4,4.6,4.6,0,0,0,6.3-.6l13.1-15a4.8,4.8,0,0,0-.4-6.5c-2.2-1.9-4.4-3.7-6.8-5.4A58.8,58.8,0,0,0,784,298a69.7,69.7,0,0,0-14.2-4.2,91.7,91.7,0,0,0-17.3-1.6,74,74,0,0,0-28.6,5.5,67.7,67.7,0,0,0-22.2,15.1A70.5,70.5,0,0,0,682,362.2v.4a71,71,0,0,0,5.2,27.3A67.9,67.9,0,0,0,701.7,412a68.7,68.7,0,0,0,22,14.8,70.5,70.5,0,0,0,27.7,5.4,88.2,88.2,0,0,0,17.8-1.7,62.5,62.5,0,0,0,14.6-4.8,65.8,65.8,0,0,0,12.2-7.6c2.6-2.1,5.1-4.3,7.6-6.7a4.7,4.7,0,0,0,.1-6.6Z"/><path class="cls-13" d="M973.3,298.7v46.8a2.6,2.6,0,0,1-2.6,2.6H921a2.6,2.6,0,0,1-2.6-2.6V298.7a4.2,4.2,0,0,0-4.2-4.2H892.8a4.2,4.2,0,0,0-4.2,4.2v127a4.2,4.2,0,0,0,4.2,4.2h21.4a4.2,4.2,0,0,0,4.2-4.2V378.1a2.6,2.6,0,0,1,2.6-2.6h49.7a2.6,2.6,0,0,1,2.6,2.6v47.6a4.2,4.2,0,0,0,4.2,4.2h21.4a4.1,4.1,0,0,0,4.1-4.2v-127a4.1,4.1,0,0,0-4.1-4.2H977.5A4.2,4.2,0,0,0,973.3,298.7Z"/><path class="cls-14" d="M1160.9,293.6h-14.6a9.6,9.6,0,0,0-8.9,5.9l-53.3,125.3a3.6,3.6,0,0,0,3.4,5.1h19.8a7.3,7.3,0,0,0,6.8-4.6l10.5-25.8,10.7-26.3,15.9-38.9a2.2,2.2,0,0,1,4.1,0l15.9,38.9,10.7,26.3,10.5,25.8a7.3,7.3,0,0,0,6.8,4.6h20.6a3.7,3.7,0,0,0,3.4-5.1l-53.3-125.3A9.8,9.8,0,0,0,1160.9,293.6Z"/><path class="cls-15" d="M1305.6,298.7v127a4.2,4.2,0,0,0,4.2,4.2h21.3a4.2,4.2,0,0,0,4.2-4.2v-127a4.2,4.2,0,0,0-4.2-4.2h-21.3A4.2,4.2,0,0,0,1305.6,298.7Z"/><path class="cls-16" d="M146.5,495.6a10.8,10.8,0,0,0,3.5,4.3,22,22,0,0,0,6.9,3.6,70.2,70.2,0,0,0,11.2,3c9.3,2.1,16.1,5,20.5,8.6s6.6,8.7,6.6,15.1a22.7,22.7,0,0,1-2.1,9.8,22.3,22.3,0,0,1-5.8,7.5,28,28,0,0,1-8.9,4.7,37.8,37.8,0,0,1-11.4,1.7,50.9,50.9,0,0,1-18.3-3.2,52.7,52.7,0,0,1-15.7-10l5.8-6.9a51.1,51.1,0,0,0,13.2,8.9,38.3,38.3,0,0,0,15.3,2.9q8.4,0,13.5-3.9a12.5,12.5,0,0,0,5-10.4,14.7,14.7,0,0,0-.9-5.3,11.6,11.6,0,0,0-3.3-4.2,24.3,24.3,0,0,0-6.7-3.5,83.1,83.1,0,0,0-10.7-2.9,107.2,107.2,0,0,1-12.5-3.6,32.5,32.5,0,0,1-8.7-4.9,17.9,17.9,0,0,1-5.1-6.6,21.4,21.4,0,0,1-1.7-9.1,20.9,20.9,0,0,1,2-9.1,22.2,22.2,0,0,1,5.7-7.2,28.2,28.2,0,0,1,8.7-4.8,31.6,31.6,0,0,1,10.9-1.7,46,46,0,0,1,16,2.5,47.9,47.9,0,0,1,13.2,7.6l-5.4,7.2a42.2,42.2,0,0,0-11.7-6.9,37,37,0,0,0-12.3-2.1,20.8,20.8,0,0,0-7.3,1.1,17.3,17.3,0,0,0-5.6,2.8,12.4,12.4,0,0,0-3.6,4.3,12.1,12.1,0,0,0-1.2,5.3A15.3,15.3,0,0,0,146.5,495.6Z"/><path class="cls-17" d="M222,552.7h-9.2V466H222v36a28.1,28.1,0,0,1,8-8.5c3.4-2.3,7.7-3.5,13-3.5a25.7,25.7,0,0,1,9.9,1.8,21.1,21.1,0,0,1,7.4,5,23.3,23.3,0,0,1,4.6,7.8,28.7,28.7,0,0,1,1.6,10v38.1h-9.2V516.8c0-5.7-1.4-10.2-4.3-13.5s-7.2-5-12.6-5a19,19,0,0,0-7.3,1.4,16,16,0,0,0-5.9,3.9,16.8,16.8,0,0,0-3.9,6.1,22,22,0,0,0-1.3,7.8Z"/><path class="cls-18" d="M298.3,499.8a49.4,49.4,0,0,0-8.8,3.3l-2.7-7.5a61.3,61.3,0,0,1,10.3-3.8,48.5,48.5,0,0,1,12-1.3c8.4,0,14.9,2,19.4,6.2s6.8,10.3,6.8,18.5v37.5h-8.8v-9.3a29.9,29.9,0,0,1-8.6,7.4,26.8,26.8,0,0,1-13.6,3.2,29.4,29.4,0,0,1-8.4-1.2,24.2,24.2,0,0,1-7.4-3.6,17.7,17.7,0,0,1-5.2-6,17.4,17.4,0,0,1-2-8.4,19.4,19.4,0,0,1,1.9-8.6,18.2,18.2,0,0,1,5.4-6.3,28.2,28.2,0,0,1,8.4-3.8,43.3,43.3,0,0,1,10.6-1.3,75.8,75.8,0,0,1,10.3.7,77,77,0,0,1,8.6,1.9v-2.1c0-5.6-1.6-9.7-4.8-12.5s-7.7-4.3-13.5-4.3A37.1,37.1,0,0,0,298.3,499.8Zm-3,25.2a11.4,11.4,0,0,0-4.6,9.4,9.8,9.8,0,0,0,1.3,5.2,12.3,12.3,0,0,0,3.3,3.9,14.5,14.5,0,0,0,5,2.4,18.5,18.5,0,0,0,5.8.9,23.2,23.2,0,0,0,8-1.3,21.1,21.1,0,0,0,6.5-3.4,16,16,0,0,0,4.4-5.3,13.5,13.5,0,0,0,1.6-6.7v-5.9l-7.9-1.8a59.9,59.9,0,0,0-10.1-.8C302.8,521.6,298.4,522.7,295.3,525Z"/><path class="cls-19" d="M414.3,535.5a32.3,32.3,0,0,1-6.6,10,28.9,28.9,0,0,1-20.3,8.5,24.1,24.1,0,0,1-7.8-1.1,24.8,24.8,0,0,1-6.4-2.8,26.6,26.6,0,0,1-5.2-4.2,28,28,0,0,1-4.1-5v30.8h-9.2V491.3h9.2v12.4a54.3,54.3,0,0,1,4.2-5.3,27.9,27.9,0,0,1,11.5-7.3,27.7,27.7,0,0,1,7.8-1.1,28.2,28.2,0,0,1,20.2,8.4,29.8,29.8,0,0,1,6.7,10,38,38,0,0,1,0,27.1Zm-8.7-23.2a23.1,23.1,0,0,0-4.6-7.6,21.4,21.4,0,0,0-15.3-6.4,21.1,21.1,0,0,0-8.2,1.7,24.7,24.7,0,0,0-7.1,4.8,21.9,21.9,0,0,0-5,7.5,23.2,23.2,0,0,0-1.9,9.6,24.1,24.1,0,0,0,1.9,9.8,21.9,21.9,0,0,0,5,7.5,24.7,24.7,0,0,0,7.1,4.8,21.7,21.7,0,0,0,16.6.1,19.4,19.4,0,0,0,6.9-4.6,20.2,20.2,0,0,0,4.6-7.5,25.7,25.7,0,0,0,1.8-9.9A25.2,25.2,0,0,0,405.6,512.3Z"/><path class="cls-20" d="M433.8,477.9V467.8h10.5v10.1Zm.6,74.8V491.3h9.2v61.4Z"/><path class="cls-21" d="M474,552.7h-9.2V491.3H474V502a28.5,28.5,0,0,1,8.1-8.5c3.3-2.3,7.6-3.5,12.9-3.5a25.7,25.7,0,0,1,9.9,1.8,20.2,20.2,0,0,1,7.4,5,21.8,21.8,0,0,1,4.6,7.8,28.7,28.7,0,0,1,1.6,10v38.1h-9.1V516.8c0-5.7-1.5-10.2-4.4-13.5s-7.1-5-12.6-5a19.8,19.8,0,0,0-7.3,1.4,16.9,16.9,0,0,0-5.9,3.9,18,18,0,0,0-3.8,6.1,20,20,0,0,0-1.4,7.8Z"/><path class="cls-22" d="M594.3,555.1a25.5,25.5,0,0,1-6.3,9.3,26.9,26.9,0,0,1-9.9,5.6,39.8,39.8,0,0,1-12.9,1.9,51.2,51.2,0,0,1-14.7-2.1,47.4,47.4,0,0,1-13.2-6.4l4.2-7.1a45.3,45.3,0,0,0,11.1,5.8,39.4,39.4,0,0,0,12.5,2c6.8,0,12.2-1.8,16.3-5.5s6-9.1,6-16.3V535a39.1,39.1,0,0,1-9.8,9.2,26.1,26.1,0,0,1-14.3,3.8,29.9,29.9,0,0,1-10.7-2,28,28,0,0,1-15.7-14.8,29.4,29.4,0,0,1-2.4-12.1,29.8,29.8,0,0,1,2.4-12.2,27.4,27.4,0,0,1,6.5-9.1,29.3,29.3,0,0,1,9.2-5.8,30.7,30.7,0,0,1,10.7-2,28,28,0,0,1,7.9,1,29.5,29.5,0,0,1,6.5,2.7,23.4,23.4,0,0,1,5.3,3.9,46.9,46.9,0,0,1,4.3,4.7v-11h9.2V542A37,37,0,0,1,594.3,555.1Zm-8.5-44.7a20.9,20.9,0,0,0-5.1-6.6,20.1,20.1,0,0,0-7.2-4.2,24,24,0,0,0-8.4-1.5,23,23,0,0,0-8.3,1.4,18.1,18.1,0,0,0-6.7,4.2,18.8,18.8,0,0,0-4.6,6.5,22.1,22.1,0,0,0-1.7,8.7,20.4,20.4,0,0,0,1.8,8.6,20.6,20.6,0,0,0,4.6,6.6,19.2,19.2,0,0,0,6.8,4.3,21.6,21.6,0,0,0,8.1,1.5,24,24,0,0,0,8.4-1.5,23.5,23.5,0,0,0,7.2-4.2,20.9,20.9,0,0,0,5.1-6.6,20.4,20.4,0,0,0,1.9-8.6A19.8,19.8,0,0,0,585.8,510.4Z"/><path class="cls-23" d="M704.4,469.3h7.7L735,538.8l23.7-69.2h9.9l-29.7,83.7h-8l-22.8-67.5-22.9,67.5h-7.9l-29.6-83.7h10.2l23.7,69.2Z"/><path class="cls-24" d="M784.2,534.2a21.9,21.9,0,0,0,4.9,6.6,19.9,19.9,0,0,0,6.7,4,21.9,21.9,0,0,0,7.7,1.4,23.5,23.5,0,0,0,11-2.4,33.1,33.1,0,0,0,8.3-6.3l5.7,5.1A36.7,36.7,0,0,1,818,551c-4,2.1-8.9,3.1-14.8,3.1a29.6,29.6,0,0,1-11.8-2.3,28.5,28.5,0,0,1-9.8-6.5,29.9,29.9,0,0,1-6.6-10.2,32.4,32.4,0,0,1-2.5-13,34.8,34.8,0,0,1,2.2-12.6,30.8,30.8,0,0,1,6.1-10.2,28.1,28.1,0,0,1,21.1-9.3,26.2,26.2,0,0,1,21.2,9.5,32,32,0,0,1,5.6,10.3,43.8,43.8,0,0,1,1.9,12.7v1.3c0,.5-.1,1-.1,1.6H781.9A25.8,25.8,0,0,0,784.2,534.2Zm37-15.6a33.6,33.6,0,0,0-1.7-7.9,20.9,20.9,0,0,0-3.8-6.7,19.2,19.2,0,0,0-5.9-4.6,18.6,18.6,0,0,0-8.1-1.7,16.4,16.4,0,0,0-7.4,1.6,22.1,22.1,0,0,0-6.1,4.4,24.8,24.8,0,0,0-4.2,6.6,27.4,27.4,0,0,0-2.1,8.3Z"/><path class="cls-25" d="M906.1,535.5a29.1,29.1,0,0,1-6.6,10,26,26,0,0,1-9.4,6.3,27.1,27.1,0,0,1-10.8,2.2,24.8,24.8,0,0,1-7.9-1.1,26.4,26.4,0,0,1-6.4-2.8,25.9,25.9,0,0,1-5.1-4.2,24.3,24.3,0,0,1-4.1-5v11.8h-9.2V466h9.2v37.7a34.9,34.9,0,0,1,4.2-5.3,26.4,26.4,0,0,1,5.1-4.3,31.4,31.4,0,0,1,6.4-3,26.7,26.7,0,0,1,7.8-1.1,28.7,28.7,0,0,1,10.7,2.1,29.3,29.3,0,0,1,16.1,16.3,38,38,0,0,1,0,27.1Zm-8.6-23.2A20.8,20.8,0,0,0,885.9,500a20.9,20.9,0,0,0-16.5,0,25.2,25.2,0,0,0-7.2,4.8,23.5,23.5,0,0,0-5,7.5,24.9,24.9,0,0,0-1.8,9.6,25.9,25.9,0,0,0,1.8,9.8,23.5,23.5,0,0,0,5,7.5,25.2,25.2,0,0,0,7.2,4.8,21.1,21.1,0,0,0,8.2,1.7,22,22,0,0,0,8.4-1.6,21.4,21.4,0,0,0,6.9-4.6,21.6,21.6,0,0,0,4.6-7.5,25.7,25.7,0,0,0,1.7-9.9A25.2,25.2,0,0,0,897.5,512.3Z"/><path class="cls-26" d="M925.6,477.9v-8.3h53v6.9l-26,28.9a44.6,44.6,0,0,1,10.4,2.1,27.2,27.2,0,0,1,8.7,4.3,19.7,19.7,0,0,1,5.9,7.2,20.8,20.8,0,0,1,2.3,10,24.5,24.5,0,0,1-2.2,10.2,23.1,23.1,0,0,1-5.9,7.9,27.2,27.2,0,0,1-8.7,5.2,32.4,32.4,0,0,1-10.9,1.8c-7,0-13-1.3-18.2-4.1a39.2,39.2,0,0,1-12.8-10.7l6.8-6.1a36.7,36.7,0,0,0,10.7,9.2,28.5,28.5,0,0,0,13.6,3.2,23,23,0,0,0,7.1-1.1,17.2,17.2,0,0,0,5.8-3.3,16.9,16.9,0,0,0,3.9-5.2,16,16,0,0,0,1.4-6.7,13.5,13.5,0,0,0-6.5-12c-4.3-2.8-9.9-4.1-16.8-4.1h-5.3l-1.9-5.6,26.2-29.7Z"/><path class="cls-27" d="M1066.8,552.7h-9.4V478.2h-27.9v-8.6h65.2v8.6h-27.9Z"/><path class="cls-28" d="M1153.6,534.4a32.3,32.3,0,0,1-6.7,10.2,31.5,31.5,0,0,1-10.2,7,32.6,32.6,0,0,1-12.9,2.5,31.3,31.3,0,0,1-12.7-2.5,32.4,32.4,0,0,1-10.1-6.9,32.8,32.8,0,0,1-6.6-34.9,31.4,31.4,0,0,1,6.6-10.3,33.1,33.1,0,0,1,10.2-7,31.9,31.9,0,0,1,12.9-2.5,31.3,31.3,0,0,1,12.7,2.5,31.7,31.7,0,0,1,10.2,6.9,30.4,30.4,0,0,1,6.6,10.2,32.1,32.1,0,0,1,2.4,12.3A33.1,33.1,0,0,1,1153.6,534.4Zm-8.7-21.6a21.8,21.8,0,0,0-4.8-7.7,22.5,22.5,0,0,0-7.2-5.1,21.2,21.2,0,0,0-9.1-1.9,22.7,22.7,0,0,0-9.1,1.8,20.2,20.2,0,0,0-7.1,5.1,27.5,27.5,0,0,0-4.6,7.6,27,27,0,0,0,.1,18.6,21.9,21.9,0,0,0,4.8,7.6,21.8,21.8,0,0,0,16.2,7,22.7,22.7,0,0,0,9.1-1.8,19.3,19.3,0,0,0,7.1-5.1,22.2,22.2,0,0,0,4.7-7.5,26,26,0,0,0,1.6-9.3A24,24,0,0,0,1144.9,512.8Z"/><path class="cls-29" d="M1228.8,555.1a25.5,25.5,0,0,1-6.3,9.3,26.1,26.1,0,0,1-9.9,5.6,39.8,39.8,0,0,1-12.9,1.9,51.2,51.2,0,0,1-14.7-2.1,47.4,47.4,0,0,1-13.2-6.4l4.2-7.1a47.1,47.1,0,0,0,11.1,5.8,39.4,39.4,0,0,0,12.5,2c6.8,0,12.2-1.8,16.3-5.5s6-9.1,6-16.3V535a37.5,37.5,0,0,1-9.8,9.2,25.8,25.8,0,0,1-14.3,3.8,29.9,29.9,0,0,1-10.7-2,28,28,0,0,1-15.7-14.8,29.4,29.4,0,0,1-2.4-12.1,29.8,29.8,0,0,1,2.4-12.2,27.4,27.4,0,0,1,6.5-9.1,29,29,0,0,1,19.9-7.8,28,28,0,0,1,7.9,1,32.6,32.6,0,0,1,6.6,2.7,25.3,25.3,0,0,1,5.2,3.9,37.4,37.4,0,0,1,4.3,4.7v-11h9.2V542A37,37,0,0,1,1228.8,555.1Zm-8.5-44.7a20.9,20.9,0,0,0-5.1-6.6,20.1,20.1,0,0,0-7.2-4.2,23.6,23.6,0,0,0-8.4-1.5,22.1,22.1,0,0,0-8.2,1.4,17.7,17.7,0,0,0-6.8,4.2,18.8,18.8,0,0,0-4.6,6.5,22.1,22.1,0,0,0-1.6,8.7,20.3,20.3,0,0,0,1.7,8.6,20.6,20.6,0,0,0,4.6,6.6,19.2,19.2,0,0,0,6.8,4.3,22,22,0,0,0,8.1,1.5,24.1,24.1,0,0,0,15.6-5.7,20.9,20.9,0,0,0,5.1-6.6,20.4,20.4,0,0,0,1.9-8.6A19.8,19.8,0,0,0,1220.3,510.4Z"/><path class="cls-30" d="M1259.4,534.2a19.9,19.9,0,0,0,11.5,10.6,21.9,21.9,0,0,0,7.7,1.4,23.5,23.5,0,0,0,11-2.4,35.5,35.5,0,0,0,8.4-6.3l5.7,5.1a37.1,37.1,0,0,1-10.6,8.4c-4,2.1-8.9,3.1-14.7,3.1a29.7,29.7,0,0,1-28.3-19,32.4,32.4,0,0,1-2.5-13,34.8,34.8,0,0,1,2.2-12.6,32.6,32.6,0,0,1,6.1-10.2,27.3,27.3,0,0,1,9.3-6.8,30,30,0,0,1,24,0,28,28,0,0,1,9,7,30.2,30.2,0,0,1,5.6,10.3,43.8,43.8,0,0,1,1.9,12.7v1.3c0,.5-.1,1-.1,1.6H1257A23.8,23.8,0,0,0,1259.4,534.2Zm36.9-15.6a29.3,29.3,0,0,0-1.7-7.9,20.9,20.9,0,0,0-3.8-6.7,19.2,19.2,0,0,0-5.9-4.6,18.6,18.6,0,0,0-8.1-1.7,16.7,16.7,0,0,0-7.4,1.6,20.2,20.2,0,0,0-6,4.4,22.8,22.8,0,0,0-4.3,6.6,27.4,27.4,0,0,0-2.1,8.3Z"/><path class="cls-31" d="M1334.1,535.2c0,3.8.9,6.5,2.8,8a11.8,11.8,0,0,0,7.5,2.3,21.4,21.4,0,0,0,4.5-.5,20.7,20.7,0,0,0,4.4-1.7v7.9a23.4,23.4,0,0,1-5,1.9,22.5,22.5,0,0,1-6,.7,21.7,21.7,0,0,1-6.9-1,12.8,12.8,0,0,1-5.5-3,14.1,14.1,0,0,1-3.7-5.4,23.5,23.5,0,0,1-1.3-8v-37h-8.5v-8.1h8.5V472.8h9.2v18.5h19.5v8.1h-19.5Z"/><path class="cls-32" d="M1378.8,552.7h-9.1V466h9.1v36a29.8,29.8,0,0,1,8.1-8.5c3.4-2.3,7.7-3.5,13-3.5a25.7,25.7,0,0,1,9.9,1.8,21.1,21.1,0,0,1,7.4,5,23.3,23.3,0,0,1,4.6,7.8,28.7,28.7,0,0,1,1.6,10v38.1h-9.2V516.8c0-5.7-1.4-10.2-4.3-13.5s-7.2-5-12.6-5a19,19,0,0,0-7.3,1.4,16,16,0,0,0-5.9,3.9,16.8,16.8,0,0,0-3.9,6.1,22.1,22.1,0,0,0-1.4,7.8Z"/><path class="cls-33" d="M1450.8,534.2a21.9,21.9,0,0,0,4.9,6.6,20.5,20.5,0,0,0,6.6,4,22.9,22.9,0,0,0,7.8,1.4,23.8,23.8,0,0,0,11-2.4,33.1,33.1,0,0,0,8.3-6.3l5.7,5.1a38.1,38.1,0,0,1-10.5,8.4c-4,2.1-8.9,3.1-14.8,3.1a29.2,29.2,0,0,1-11.8-2.3,28.5,28.5,0,0,1-9.8-6.5,31.7,31.7,0,0,1-6.7-10.2,34.2,34.2,0,0,1-2.4-13,34.8,34.8,0,0,1,2.2-12.6,30.8,30.8,0,0,1,6.1-10.2,28,28,0,0,1,42.3.2,32,32,0,0,1,5.6,10.3,43.8,43.8,0,0,1,1.8,12.7v1.3a9.2,9.2,0,0,1-.1,1.6h-48.5A25.8,25.8,0,0,0,1450.8,534.2Zm37-15.6a33.6,33.6,0,0,0-1.7-7.9,22.9,22.9,0,0,0-3.8-6.7,19.2,19.2,0,0,0-5.9-4.6,18.6,18.6,0,0,0-8.1-1.7,17.1,17.1,0,0,0-7.5,1.6,23.2,23.2,0,0,0-6,4.4,24.8,24.8,0,0,0-4.2,6.6,27.4,27.4,0,0,0-2.1,8.3Z"/><path class="cls-34" d="M1522.3,552.7h-9.1V491.3h9.1v16a33.3,33.3,0,0,1,4.2-7,29.6,29.6,0,0,1,5.7-5.5,25.5,25.5,0,0,1,7-3.5,27.1,27.1,0,0,1,8.2-1.1v9.9h-.7a25.5,25.5,0,0,0-9.5,1.8,21.3,21.3,0,0,0-7.7,5.3,24.5,24.5,0,0,0-5.3,8.9,37,37,0,0,0-1.9,12.1Z"/></g></svg>